<?xml version="1.0" encoding="UTF-8"?><svg id="Layer_2" xmlns="http://www.w3.org/2000/svg" viewBox="0 0 50 64.29"><defs><style>.cls-1{fill:#6c1100;}.cls-2{fill:#a00202;}.cls-3{fill:#ff7e6a;}.cls-4{fill:#c62828;}.cls-5{fill:#ffe6d6;}.cls-6{fill:#fff;}.cls-7{fill:#e53935;}.cls-8{opacity:.75;}.cls-9{opacity:.65;}.cls-10{opacity:.5;}.cls-11{fill:#a02222;}</style></defs><g id="Layer_1-2"><path class="cls-4" d="M20.13,56.33v7.95l-2.27-2.27-2.27,2.27v-7.95h4.55Z"/><path class="cls-4" d="M40.22,55.84H.7L0,0h42.84c1.43,0,2.02.59,2.02,1.32v49.88c0,2.56-2.08,4.64-4.64,4.64Z"/><path class="cls-5" d="M43.88,1.3H.65l1.95,47.93c0,5.45,4.42,9.86,9.86,9.86h34.29V3.66c0-.26-.12-.51-.33-.66l-2.04-1.53c-.14-.11-.32-.17-.5-.17Z"/><path class="cls-4" d="M46.6,59.74H6.51c-.37,0-.66-.3-.66-.66V4.56c0-.37.3-.66.66-.66h40.09c1.88,0,3.4,1.52,3.4,3.4v49.04c0,1.88-1.52,3.4-3.4,3.4Z"/><path class="cls-11" d="M1.84,58.23c1.61,1.31,3.36,1.48,4,1.52V3.9c-.81-.27-1.83-.69-2.92-1.38C1.87,1.85,1.06,1.13.45.49c-.28.29-.45.68-.45,1.12v54.23c.27.58.81,1.54,1.84,2.38Z"/><path class="cls-3" d="M38.16,55.73c0,.36.3.64.66.64s.66-.29.66-.64-.3-.64-.66-.64-.66.29-.66.64Z"/><path class="cls-3" d="M38.16,53.82c0,.35.3.64.66.64s.66-.29.66-.64-.3-.64-.66-.64-.66.29-.66.64Z"/><path class="cls-3" d="M40.1,51.91c0,.35.3.64.66.64s.66-.29.66-.64-.3-.64-.66-.64-.66.29-.66.64Z"/><path class="cls-3" d="M38.16,51.91c0,.35.3.64.66.64s.66-.29.66-.64-.3-.64-.66-.64-.66.29-.66.64Z"/><path class="cls-3" d="M42.04,50c0,.36.3.64.66.64s.66-.29.66-.64-.3-.64-.66-.64-.66.29-.66.64Z"/><path class="cls-3" d="M40.1,50c0,.36.3.64.66.64s.66-.29.66-.64-.3-.64-.66-.64-.66.29-.66.64Z"/><path class="cls-3" d="M38.16,50c0,.36.3.64.66.64s.66-.29.66-.64-.3-.64-.66-.64-.66.29-.66.64Z"/><path class="cls-3" d="M43.98,48.08c0,.36.3.64.66.64s.66-.29.66-.64-.3-.64-.66-.64-.66.29-.66.64Z"/><path class="cls-3" d="M42.04,48.08c0,.36.3.64.66.64s.66-.29.66-.64-.3-.64-.66-.64-.66.29-.66.64Z"/><path class="cls-3" d="M40.1,48.08c0,.36.3.64.66.64s.66-.29.66-.64-.3-.64-.66-.64-.66.29-.66.64Z"/><path class="cls-3" d="M38.16,48.08c0,.36.3.64.66.64s.66-.29.66-.64-.3-.64-.66-.64-.66.29-.66.64Z"/><path class="cls-3" d="M43.98,46.17c0,.36.3.64.66.64s.66-.29.66-.64-.3-.64-.66-.64-.66.29-.66.64Z"/><path class="cls-3" d="M42.04,46.17c0,.36.3.64.66.64s.66-.29.66-.64-.3-.64-.66-.64-.66.29-.66.64Z"/><path class="cls-3" d="M40.1,46.17c0,.36.3.64.66.64s.66-.29.66-.64-.3-.64-.66-.64-.66.29-.66.64Z"/><path class="cls-3" d="M45.92,44.26c0,.36.3.64.66.64s.66-.29.66-.64-.3-.64-.66-.64-.66.29-.66.64Z"/><path class="cls-3" d="M43.98,44.26c0,.36.3.64.66.64s.66-.29.66-.64-.3-.64-.66-.64-.66.29-.66.64Z"/><path class="cls-3" d="M42.04,44.26c0,.36.3.64.66.64s.66-.29.66-.64-.3-.64-.66-.64-.66.29-.66.64Z"/><path class="cls-3" d="M40.1,44.26c0,.36.3.64.66.64s.66-.29.66-.64-.3-.64-.66-.64-.66.29-.66.64Z"/><path class="cls-3" d="M38.16,44.26c0,.36.3.64.66.64s.66-.29.66-.64-.3-.64-.66-.64-.66.29-.66.64Z"/><path class="cls-3" d="M47.86,42.35c0,.36.3.64.66.64s.66-.29.66-.64-.3-.64-.66-.64-.66.29-.66.64Z"/><path class="cls-3" d="M45.92,42.35c0,.36.3.64.66.64s.66-.29.66-.64-.3-.64-.66-.64-.66.29-.66.64Z"/><path class="cls-3" d="M43.98,42.35c0,.36.3.64.66.64s.66-.29.66-.64-.3-.64-.66-.64-.66.29-.66.64Z"/><path class="cls-3" d="M42.04,42.35c0,.36.3.64.66.64s.66-.29.66-.64-.3-.64-.66-.64-.66.29-.66.64Z"/><path class="cls-3" d="M40.1,42.35c0,.36.3.64.66.64s.66-.29.66-.64-.3-.64-.66-.64-.66.29-.66.64Z"/><path class="cls-3" d="M38.16,42.35c0,.36.3.64.66.64s.66-.29.66-.64-.3-.64-.66-.64-.66.29-.66.64Z"/><path class="cls-3" d="M36.23,42.35c0,.36.3.64.66.64s.66-.29.66-.64-.3-.64-.66-.64-.66.29-.66.64Z"/><path class="cls-3" d="M45.92,40.44c0,.35.3.64.66.64s.66-.29.66-.64-.3-.64-.66-.64-.66.29-.66.64Z"/><path class="cls-3" d="M43.98,40.44c0,.35.3.64.66.64s.66-.29.66-.64-.3-.64-.66-.64-.66.29-.66.64Z"/><path class="cls-3" d="M42.04,40.44c0,.35.3.64.66.64s.66-.29.66-.64-.3-.64-.66-.64-.66.29-.66.64Z"/><path class="cls-3" d="M40.1,40.44c0,.35.3.64.66.64s.66-.29.66-.64-.3-.64-.66-.64-.66.29-.66.64Z"/><path class="cls-3" d="M38.16,40.44c0,.35.3.64.66.64s.66-.29.66-.64-.3-.64-.66-.64-.66.29-.66.64Z"/><path class="cls-3" d="M36.23,40.44c0,.35.3.64.66.64s.66-.29.66-.64-.3-.64-.66-.64-.66.29-.66.64Z"/><path class="cls-3" d="M42.04,38.53c0,.36.3.64.66.64s.66-.29.66-.64-.3-.64-.66-.64-.66.29-.66.64Z"/><path class="cls-3" d="M40.1,38.53c0,.36.3.64.66.64s.66-.29.66-.64-.3-.64-.66-.64-.66.29-.66.64Z"/><path class="cls-3" d="M38.16,38.53c0,.36.3.64.66.64s.66-.29.66-.64-.3-.64-.66-.64-.66.29-.66.64Z"/><path class="cls-3" d="M38.16,36.61c0,.36.3.64.66.64s.66-.29.66-.64-.3-.64-.66-.64-.66.29-.66.64Z"/><path class="cls-3" d="M34.29,36.61c0,.36.3.64.66.64s.66-.29.66-.64-.3-.64-.66-.64-.66.29-.66.64Z"/><path class="cls-3" d="M38.16,34.7c0,.36.3.64.66.64s.66-.29.66-.64-.3-.64-.66-.64-.66.29-.66.64Z"/><path class="cls-3" d="M36.23,34.7c0,.36.3.64.66.64s.66-.29.66-.64-.3-.64-.66-.64-.66.29-.66.64Z"/><path class="cls-3" d="M32.35,34.7c0,.36.3.64.66.64s.66-.29.66-.64-.3-.64-.66-.64-.66.29-.66.64Z"/><path class="cls-3" d="M30.41,34.7c0,.36.3.64.66.64s.66-.29.66-.64-.3-.64-.66-.64-.66.29-.66.64Z"/><path class="cls-3" d="M36.23,32.79c0,.36.3.64.66.64s.66-.29.66-.64-.3-.64-.66-.64-.66.29-.66.64Z"/><path class="cls-3" d="M30.41,32.79c0,.36.3.64.66.64s.66-.29.66-.64-.3-.64-.66-.64-.66.29-.66.64Z"/><path class="cls-3" d="M28.47,32.79c0,.36.3.64.66.64s.66-.29.66-.64-.3-.64-.66-.64-.66.29-.66.64Z"/><path class="cls-3" d="M34.29,30.88c0,.36.3.64.66.64s.66-.29.66-.64-.3-.64-.66-.64-.66.29-.66.64Z"/><path class="cls-3" d="M32.35,30.88c0,.36.3.64.66.64s.66-.29.66-.64-.3-.64-.66-.64-.66.29-.66.64Z"/><path class="cls-3" d="M30.41,30.88c0,.36.3.64.66.64s.66-.29.66-.64-.3-.64-.66-.64-.66.29-.66.64Z"/><path class="cls-3" d="M28.47,30.88c0,.36.3.64.66.64s.66-.29.66-.64-.3-.64-.66-.64-.66.29-.66.64Z"/><path class="cls-3" d="M26.53,30.88c0,.36.3.64.66.64s.66-.29.66-.64-.3-.64-.66-.64-.66.29-.66.64Z"/><path class="cls-3" d="M36.23,28.97c0,.36.3.64.66.64s.66-.29.66-.64-.3-.64-.66-.64-.66.29-.66.64Z"/><path class="cls-3" d="M34.29,28.97c0,.36.3.64.66.64s.66-.29.66-.64-.3-.64-.66-.64-.66.29-.66.64Z"/><path class="cls-3" d="M32.35,28.97c0,.36.3.64.66.64s.66-.29.66-.64-.3-.64-.66-.64-.66.29-.66.64Z"/><path class="cls-3" d="M30.41,28.97c0,.36.3.64.66.64s.66-.29.66-.64-.3-.64-.66-.64-.66.29-.66.64Z"/><path class="cls-3" d="M28.47,28.97c0,.36.3.64.66.64s.66-.29.66-.64-.3-.64-.66-.64-.66.29-.66.64Z"/><path class="cls-3" d="M26.53,28.97c0,.36.3.64.66.64s.66-.29.66-.64-.3-.64-.66-.64-.66.29-.66.64Z"/><path class="cls-3" d="M24.59,28.97c0,.36.3.64.66.64s.66-.29.66-.64-.3-.64-.66-.64-.66.29-.66.64Z"/><path class="cls-3" d="M40.1,27.06c0,.36.3.64.66.64s.66-.29.66-.64-.3-.64-.66-.64-.66.29-.66.64Z"/><path class="cls-3" d="M38.16,27.06c0,.36.3.64.66.64s.66-.29.66-.64-.3-.64-.66-.64-.66.29-.66.64Z"/><path class="cls-3" d="M36.23,27.06c0,.36.3.64.66.64s.66-.29.66-.64-.3-.64-.66-.64-.66.29-.66.64Z"/><path class="cls-3" d="M34.29,27.06c0,.36.3.64.66.64s.66-.29.66-.64-.3-.64-.66-.64-.66.29-.66.64Z"/><path class="cls-3" d="M32.35,27.06c0,.36.3.64.66.64s.66-.29.66-.64-.3-.64-.66-.64-.66.29-.66.64Z"/><path class="cls-3" d="M30.41,27.06c0,.36.3.64.66.64s.66-.29.66-.64-.3-.64-.66-.64-.66.29-.66.64Z"/><path class="cls-3" d="M28.47,27.06c0,.36.3.64.66.64s.66-.29.66-.64-.3-.64-.66-.64-.66.29-.66.64Z"/><path class="cls-3" d="M26.53,27.06c0,.36.3.64.66.64s.66-.29.66-.64-.3-.64-.66-.64-.66.29-.66.64Z"/><path class="cls-3" d="M24.59,27.06c0,.36.3.64.66.64s.66-.29.66-.64-.3-.64-.66-.64-.66.29-.66.64Z"/><path class="cls-3" d="M42.04,25.14c0,.35.3.64.66.64s.66-.29.66-.64-.3-.64-.66-.64-.66.29-.66.64Z"/><path class="cls-3" d="M40.1,25.14c0,.35.3.64.66.64s.66-.29.66-.64-.3-.64-.66-.64-.66.29-.66.64Z"/><path class="cls-3" d="M38.16,25.14c0,.35.3.64.66.64s.66-.29.66-.64-.3-.64-.66-.64-.66.29-.66.64Z"/><path class="cls-3" d="M36.23,25.14c0,.35.3.64.66.64s.66-.29.66-.64-.3-.64-.66-.64-.66.29-.66.64Z"/><path class="cls-3" d="M34.29,25.14c0,.35.3.64.66.64s.66-.29.66-.64-.3-.64-.66-.64-.66.29-.66.64Z"/><path class="cls-3" d="M32.35,25.14c0,.35.3.64.66.64s.66-.29.66-.64-.3-.64-.66-.64-.66.29-.66.64Z"/><path class="cls-3" d="M30.41,25.14c0,.35.3.64.66.64s.66-.29.66-.64-.3-.64-.66-.64-.66.29-.66.64Z"/><path class="cls-3" d="M28.47,25.14c0,.35.3.64.66.64s.66-.29.66-.64-.3-.64-.66-.64-.66.29-.66.64Z"/><path class="cls-3" d="M26.53,25.14c0,.35.3.64.66.64s.66-.29.66-.64-.3-.64-.66-.64-.66.29-.66.64Z"/><path class="cls-3" d="M24.59,25.14c0,.35.3.64.66.64s.66-.29.66-.64-.3-.64-.66-.64-.66.29-.66.64Z"/><path class="cls-3" d="M42.04,23.23c0,.35.3.64.66.64s.66-.29.66-.64-.3-.64-.66-.64-.66.29-.66.64Z"/><path class="cls-3" d="M40.1,23.23c0,.35.3.64.66.64s.66-.29.66-.64-.3-.64-.66-.64-.66.29-.66.64Z"/><path class="cls-3" d="M38.16,23.23c0,.35.3.64.66.64s.66-.29.66-.64-.3-.64-.66-.64-.66.29-.66.64Z"/><path class="cls-3" d="M36.23,23.23c0,.35.3.64.66.64s.66-.29.66-.64-.3-.64-.66-.64-.66.29-.66.64Z"/><path class="cls-3" d="M34.29,23.23c0,.35.3.64.66.64s.66-.29.66-.64-.3-.64-.66-.64-.66.29-.66.64Z"/><path class="cls-3" d="M32.35,23.23c0,.35.3.64.66.64s.66-.29.66-.64-.3-.64-.66-.64-.66.29-.66.64Z"/><path class="cls-3" d="M30.41,23.23c0,.35.3.64.66.64s.66-.29.66-.64-.3-.64-.66-.64-.66.29-.66.64Z"/><path class="cls-3" d="M28.47,23.23c0,.35.3.64.66.64s.66-.29.66-.64-.3-.64-.66-.64-.66.29-.66.64Z"/><path class="cls-3" d="M26.53,23.23c0,.35.3.64.66.64s.66-.29.66-.64-.3-.64-.66-.64-.66.29-.66.64Z"/><path class="cls-3" d="M24.59,23.23c0,.35.3.64.66.64s.66-.29.66-.64-.3-.64-.66-.64-.66.29-.66.64Z"/><path class="cls-3" d="M22.66,23.23c0,.35.3.64.66.64s.66-.29.66-.64-.3-.64-.66-.64-.66.29-.66.64Z"/><path class="cls-3" d="M12.96,23.23c0,.35.3.64.66.64s.66-.29.66-.64-.3-.64-.66-.64-.66.29-.66.64Z"/><ellipse class="cls-3" cx="46.58" cy="21.32" rx=".66" ry=".64"/><path class="cls-3" d="M40.1,21.32c0,.36.3.64.66.64s.66-.29.66-.64-.3-.64-.66-.64-.66.29-.66.64Z"/><path class="cls-3" d="M38.16,21.32c0,.36.3.64.66.64s.66-.29.66-.64-.3-.64-.66-.64-.66.29-.66.64Z"/><path class="cls-3" d="M36.23,21.32c0,.36.3.64.66.64s.66-.29.66-.64-.3-.64-.66-.64-.66.29-.66.64Z"/><path class="cls-3" d="M30.41,21.32c0,.36.3.64.66.64s.66-.29.66-.64-.3-.64-.66-.64-.66.29-.66.64Z"/><path class="cls-3" d="M28.47,21.32c0,.36.3.64.66.64s.66-.29.66-.64-.3-.64-.66-.64-.66.29-.66.64Z"/><path class="cls-3" d="M26.53,21.32c0,.36.3.64.66.64s.66-.29.66-.64-.3-.64-.66-.64-.66.29-.66.64Z"/><path class="cls-3" d="M24.59,21.32c0,.36.3.64.66.64s.66-.29.66-.64-.3-.64-.66-.64-.66.29-.66.64Z"/><path class="cls-3" d="M22.66,21.32c0,.36.3.64.66.64s.66-.29.66-.64-.3-.64-.66-.64-.66.29-.66.64Z"/><path class="cls-3" d="M20.72,21.32c0,.36.3.64.66.64s.66-.29.66-.64-.3-.64-.66-.64-.66.29-.66.64Z"/><path class="cls-3" d="M18.78,21.32c0,.36.3.64.66.64s.66-.29.66-.64-.3-.64-.66-.64-.66.29-.66.64Z"/><path class="cls-3" d="M16.84,21.32c0,.36.3.64.66.64s.66-.29.66-.64-.3-.64-.66-.64-.66.29-.66.64Z"/><path class="cls-3" d="M14.9,21.32c0,.36.3.64.66.64s.66-.29.66-.64-.3-.64-.66-.64-.66.29-.66.64Z"/><path class="cls-3" d="M12.96,21.32c0,.36.3.64.66.64s.66-.29.66-.64-.3-.64-.66-.64-.66.29-.66.64Z"/><path class="cls-3" d="M45.92,19.41c0,.36.3.64.66.64s.66-.29.66-.64-.3-.64-.66-.64-.66.29-.66.64Z"/><path class="cls-3" d="M43.98,19.41c0,.36.3.64.66.64s.66-.29.66-.64-.3-.64-.66-.64-.66.29-.66.64Z"/><path class="cls-3" d="M38.16,19.41c0,.36.3.64.66.64s.66-.29.66-.64-.3-.64-.66-.64-.66.29-.66.64Z"/><path class="cls-3" d="M36.23,19.41c0,.36.3.64.66.64s.66-.29.66-.64-.3-.64-.66-.64-.66.29-.66.64Z"/><path class="cls-3" d="M34.29,19.41c0,.36.3.64.66.64s.66-.29.66-.64-.3-.64-.66-.64-.66.29-.66.64Z"/><path class="cls-3" d="M32.35,19.41c0,.36.3.64.66.64s.66-.29.66-.64-.3-.64-.66-.64-.66.29-.66.64Z"/><path class="cls-3" d="M30.41,19.41c0,.36.3.64.66.64s.66-.29.66-.64-.3-.64-.66-.64-.66.29-.66.64Z"/><path class="cls-3" d="M28.47,19.41c0,.36.3.64.66.64s.66-.29.66-.64-.3-.64-.66-.64-.66.29-.66.64Z"/><path class="cls-3" d="M26.53,19.41c0,.36.3.64.66.64s.66-.29.66-.64-.3-.64-.66-.64-.66.29-.66.64Z"/><path class="cls-3" d="M24.59,19.41c0,.36.3.64.66.64s.66-.29.66-.64-.3-.64-.66-.64-.66.29-.66.64Z"/><path class="cls-3" d="M22.66,19.41c0,.36.3.64.66.64s.66-.29.66-.64-.3-.64-.66-.64-.66.29-.66.64Z"/><path class="cls-3" d="M20.72,19.41c0,.36.3.64.66.64s.66-.29.66-.64-.3-.64-.66-.64-.66.29-.66.64Z"/><path class="cls-3" d="M18.78,19.41c0,.36.3.64.66.64s.66-.29.66-.64-.3-.64-.66-.64-.66.29-.66.64Z"/><path class="cls-3" d="M16.84,19.41c0,.36.3.64.66.64s.66-.29.66-.64-.3-.64-.66-.64-.66.29-.66.64Z"/><path class="cls-3" d="M14.9,19.41c0,.36.3.64.66.64s.66-.29.66-.64-.3-.64-.66-.64-.66.29-.66.64Z"/><path class="cls-3" d="M12.96,19.41c0,.36.3.64.66.64s.66-.29.66-.64-.3-.64-.66-.64-.66.29-.66.64Z"/><path class="cls-3" d="M47.86,17.5c0,.36.3.64.66.64s.66-.29.66-.64-.3-.64-.66-.64-.66.29-.66.64Z"/><path class="cls-3" d="M45.92,17.5c0,.36.3.64.66.64s.66-.29.66-.64-.3-.64-.66-.64-.66.29-.66.64Z"/><path class="cls-3" d="M43.98,17.5c0,.36.3.64.66.64s.66-.29.66-.64-.3-.64-.66-.64-.66.29-.66.64Z"/><path class="cls-3" d="M38.16,17.5c0,.36.3.64.66.64s.66-.29.66-.64-.3-.64-.66-.64-.66.29-.66.64Z"/><path class="cls-3" d="M34.29,17.5c0,.36.3.64.66.64s.66-.29.66-.64-.3-.64-.66-.64-.66.29-.66.64Z"/><path class="cls-3" d="M32.35,17.5c0,.36.3.64.66.64s.66-.29.66-.64-.3-.64-.66-.64-.66.29-.66.64Z"/><path class="cls-3" d="M28.47,17.5c0,.36.3.64.66.64s.66-.29.66-.64-.3-.64-.66-.64-.66.29-.66.64Z"/><path class="cls-3" d="M26.53,17.5c0,.36.3.64.66.64s.66-.29.66-.64-.3-.64-.66-.64-.66.29-.66.64Z"/><path class="cls-3" d="M24.59,17.5c0,.36.3.64.66.64s.66-.29.66-.64-.3-.64-.66-.64-.66.29-.66.64Z"/><path class="cls-3" d="M22.66,17.5c0,.36.3.64.66.64s.66-.29.66-.64-.3-.64-.66-.64-.66.29-.66.64Z"/><path class="cls-3" d="M20.72,17.5c0,.36.3.64.66.64s.66-.29.66-.64-.3-.64-.66-.64-.66.29-.66.64Z"/><path class="cls-3" d="M18.78,17.5c0,.36.3.64.66.64s.66-.29.66-.64-.3-.64-.66-.64-.66.29-.66.64Z"/><path class="cls-3" d="M16.84,17.5c0,.36.3.64.66.64s.66-.29.66-.64-.3-.64-.66-.64-.66.29-.66.64Z"/><path class="cls-3" d="M14.9,17.5c0,.36.3.64.66.64s.66-.29.66-.64-.3-.64-.66-.64-.66.29-.66.64Z"/><path class="cls-3" d="M12.96,17.5c0,.36.3.64.66.64s.66-.29.66-.64-.3-.64-.66-.64-.66.29-.66.64Z"/><path class="cls-3" d="M47.86,15.58c0,.36.3.64.66.64s.66-.29.66-.64-.3-.64-.66-.64-.66.29-.66.64Z"/><path class="cls-3" d="M45.92,15.58c0,.36.3.64.66.64s.66-.29.66-.64-.3-.64-.66-.64-.66.29-.66.64Z"/><path class="cls-3" d="M43.98,15.58c0,.36.3.64.66.64s.66-.29.66-.64-.3-.64-.66-.64-.66.29-.66.64Z"/><path class="cls-3" d="M36.23,15.58c0,.36.3.64.66.64s.66-.29.66-.64-.3-.64-.66-.64-.66.29-.66.64Z"/><path class="cls-3" d="M34.29,15.58c0,.36.3.64.66.64s.66-.29.66-.64-.3-.64-.66-.64-.66.29-.66.64Z"/><path class="cls-3" d="M32.35,15.58c0,.36.3.64.66.64s.66-.29.66-.64-.3-.64-.66-.64-.66.29-.66.64Z"/><path class="cls-3" d="M30.41,15.58c0,.36.3.64.66.64s.66-.29.66-.64-.3-.64-.66-.64-.66.29-.66.64Z"/><path class="cls-3" d="M28.47,15.58c0,.36.3.64.66.64s.66-.29.66-.64-.3-.64-.66-.64-.66.29-.66.64Z"/><path class="cls-3" d="M26.53,15.58c0,.36.3.64.66.64s.66-.29.66-.64-.3-.64-.66-.64-.66.29-.66.64Z"/><path class="cls-3" d="M24.59,15.58c0,.36.3.64.66.64s.66-.29.66-.64-.3-.64-.66-.64-.66.29-.66.64Z"/><path class="cls-3" d="M47.86,13.67c0,.36.3.64.66.64s.66-.29.66-.64-.3-.64-.66-.64-.66.29-.66.64Z"/><path class="cls-3" d="M45.92,13.67c0,.36.3.64.66.64s.66-.29.66-.64-.3-.64-.66-.64-.66.29-.66.64Z"/><path class="cls-3" d="M43.98,13.67c0,.36.3.64.66.64s.66-.29.66-.64-.3-.64-.66-.64-.66.29-.66.64Z"/><path class="cls-3" d="M42.04,13.67c0,.36.3.64.66.64s.66-.29.66-.64-.3-.64-.66-.64-.66.29-.66.64Z"/><path class="cls-3" d="M40.1,13.67c0,.36.3.64.66.64s.66-.29.66-.64-.3-.64-.66-.64-.66.29-.66.64Z"/><path class="cls-3" d="M34.29,13.67c0,.36.3.64.66.64s.66-.29.66-.64-.3-.64-.66-.64-.66.29-.66.64Z"/><path class="cls-3" d="M32.35,13.67c0,.36.3.64.66.64s.66-.29.66-.64-.3-.64-.66-.64-.66.29-.66.64Z"/><path class="cls-3" d="M30.41,13.67c0,.36.3.64.66.64s.66-.29.66-.64-.3-.64-.66-.64-.66.29-.66.64Z"/><path class="cls-3" d="M28.47,13.67c0,.36.3.64.66.64s.66-.29.66-.64-.3-.64-.66-.64-.66.29-.66.64Z"/><path class="cls-3" d="M26.53,13.67c0,.36.3.64.66.64s.66-.29.66-.64-.3-.64-.66-.64-.66.29-.66.64Z"/><path class="cls-3" d="M24.59,13.67c0,.36.3.64.66.64s.66-.29.66-.64-.3-.64-.66-.64-.66.29-.66.64Z"/><path class="cls-3" d="M47.86,11.76c0,.36.3.64.66.64s.66-.29.66-.64-.3-.64-.66-.64-.66.29-.66.64Z"/><ellipse class="cls-3" cx="46.58" cy="11.76" rx=".66" ry=".64"/><path class="cls-3" d="M43.98,11.76c0,.36.3.64.66.64s.66-.29.66-.64-.3-.64-.66-.64-.66.29-.66.64Z"/><path class="cls-3" d="M42.04,11.76c0,.36.3.64.66.64s.66-.29.66-.64-.3-.64-.66-.64-.66.29-.66.64Z"/><path class="cls-3" d="M40.1,11.76c0,.36.3.64.66.64s.66-.29.66-.64-.3-.64-.66-.64-.66.29-.66.64Z"/><path class="cls-3" d="M36.23,11.76c0,.36.3.64.66.64s.66-.29.66-.64-.3-.64-.66-.64-.66.29-.66.64Z"/><ellipse class="cls-3" cx="34.95" cy="11.76" rx=".66" ry=".64"/><path class="cls-3" d="M32.35,11.76c0,.36.3.64.66.64s.66-.29.66-.64-.3-.64-.66-.64-.66.29-.66.64Z"/><path class="cls-3" d="M47.86,9.85c0,.35.3.64.66.64s.66-.29.66-.64-.3-.64-.66-.64-.66.29-.66.64Z"/><ellipse class="cls-3" cx="46.58" cy="9.85" rx=".66" ry=".64"/><path class="cls-3" d="M43.98,9.85c0,.35.3.64.66.64s.66-.29.66-.64-.3-.64-.66-.64-.66.29-.66.64Z"/><path class="cls-3" d="M42.04,9.85c0,.35.3.64.66.64s.66-.29.66-.64-.3-.64-.66-.64-.66.29-.66.64Z"/><path class="cls-3" d="M40.1,9.85c0,.35.3.64.66.64s.66-.29.66-.64-.3-.64-.66-.64-.66.29-.66.64Z"/><path class="cls-3" d="M38.16,9.85c0,.35.3.64.66.64s.66-.29.66-.64-.3-.64-.66-.64-.66.29-.66.64Z"/><path class="cls-3" d="M36.23,9.85c0,.35.3.64.66.64s.66-.29.66-.64-.3-.64-.66-.64-.66.29-.66.64Z"/><ellipse class="cls-3" cx="34.95" cy="9.85" rx=".66" ry=".64"/><g class="cls-8"><rect class="cls-1" x="5.84" y="14.52" width="44.16" height="26.56"/></g><rect class="cls-2" x="6.49" y="3.9" width=".65" height="55.84"/><rect class="cls-7" x="15.58" y="59.74" width="4.52" height="1.24"/><path class="cls-6" d="M11.88,26.87v-7.11h.93c1.09,0,1.68.19,2,.74.31.54.35,1.43.35,2.83s-.04,2.27-.35,2.82c-.32.54-.91.74-2,.74h-.93ZM13.06,25.83c.4,0,.63-.04.75-.39.05-.16.1-.42.11-.75.01-.34.01-.79.01-1.37s0-1.04-.01-1.37c-.01-.33-.05-.58-.11-.75-.12-.34-.35-.38-.75-.38v5.02Z"/><path class="cls-6" d="M18.04,26.87l-.61-3h-.32v3h-1.18v-7.11h1.18c1.41,0,2.01.71,2.01,2.05,0,.71-.21,1.35-.65,1.62l.75,3.45h-1.18ZM17.11,22.9c.16,0,.38-.02.56-.15.17-.14.32-.4.32-.9s-.14-.77-.32-.91c-.17-.14-.39-.15-.56-.15v2.11Z"/><path class="cls-6" d="M22.94,25.41c-.01.29-.08.55-.2.77-.1.19-.25.38-.47.52-.22.15-.51.24-.91.24s-.7-.09-.92-.24c-.22-.15-.36-.33-.46-.52-.12-.22-.19-.48-.2-.77v-4.19c.01-.28.08-.54.2-.76.1-.19.24-.39.46-.53.22-.15.52-.24.92-.24s.69.1.91.24c.22.15.37.34.47.53.12.22.19.48.2.76v4.19ZM21.76,21.22c0-.19-.04-.33-.15-.45-.05-.05-.14-.08-.24-.08-.21,0-.31.14-.35.26-.03.08-.04.16-.04.26v4.19c0,.2.05.34.16.45.05.05.13.08.23.08.21,0,.31-.12.35-.26.03-.07.04-.15.04-.26v-4.19Z"/><path class="cls-6" d="M23.73,19.76h1.18c.51,0,1.03.12,1.42.45.39.33.65.87.65,1.68s-.26,1.35-.65,1.67c-.39.33-.91.46-1.42.46v2.85h-1.18v-7.11ZM24.91,22.96c.36,0,.59-.06.72-.22.13-.15.16-.42.16-.81s-.03-.68-.16-.85c-.13-.17-.36-.25-.72-.25v2.14Z"/><path class="cls-6" d="M27.53,23.8h1.58v.92h-1.58v-.92Z"/><path class="cls-6" d="M29.94,19.76h1.18v7.11h-1.18v-7.11Z"/><path class="cls-6" d="M33.23,23.16l-.1-.33h-.07v4.04h-1.08v-7.11h1.05l1.14,3.71.1.33h.07v-4.04h1.08v7.11h-1.05l-1.15-3.71Z"/><path class="cls-6" d="M11.74,29.78h1.68c1.06,0,1.59.59,1.59,1.67v3.43c0,1.08-.52,1.67-1.59,1.67h-1.68v-6.77ZM12.81,30.75v4.84h.6c.34,0,.54-.17.54-.66v-3.52c0-.48-.2-.66-.54-.66h-.6Z"/><path class="cls-6" d="M15.79,29.78h1.06v6.77h-1.06v-6.77Z"/><path class="cls-6" d="M20.81,34.03v.9c0,1.08-.54,1.7-1.59,1.7s-1.59-.62-1.59-1.7v-3.52c0-1.08.54-1.7,1.59-1.7s1.59.62,1.59,1.7v.66h-1.01v-.73c0-.48-.21-.67-.55-.67s-.55.18-.55.67v3.66c0,.48.21.66.55.66s.55-.17.55-.66v-.97h1.01Z"/><path class="cls-6" d="M21.25,29.78h3.29v.97h-1.11v5.81h-1.06v-5.81h-1.11v-.97Z"/><path class="cls-6" d="M25.1,29.78h1.06v6.77h-1.06v-6.77Z"/><path class="cls-6" d="M26.95,31.41c0-1.08.57-1.7,1.62-1.7s1.62.62,1.62,1.7v3.52c0,1.08-.57,1.7-1.62,1.7s-1.62-.62-1.62-1.7v-3.52ZM28.01,35c0,.48.21.67.55.67s.55-.18.55-.67v-3.66c0-.48-.21-.67-.55-.67s-.55.18-.55.67v3.66Z"/><path class="cls-6" d="M31.91,31.65v4.91h-.96v-6.77h1.34l1.09,4.05v-4.05h.95v6.77h-1.09l-1.33-4.91Z"/><path class="cls-6" d="M38.64,36.56h-1.07l-.18-1.23h-1.31l-.18,1.23h-.98l1.08-6.77h1.56l1.08,6.77ZM36.21,34.41h1.03l-.51-3.43-.51,3.43Z"/><path class="cls-6" d="M41.45,36.56c-.06-.17-.1-.28-.1-.83v-1.06c0-.63-.21-.86-.7-.86h-.37v2.76h-1.06v-6.77h1.61c1.1,0,1.58.51,1.58,1.56v.53c0,.7-.22,1.15-.7,1.37.53.22.71.74.71,1.44v1.05c0,.33,0,.57.12.82h-1.08ZM40.29,30.75v2.08h.42c.4,0,.64-.17.64-.72v-.67c0-.48-.16-.7-.54-.7h-.51Z"/><path class="cls-6" d="M44.11,34.31l-1.35-4.53h1.11l.81,3.09.81-3.09h1.02l-1.34,4.53v2.25h-1.06v-2.25Z"/><g class="cls-9"><g class="cls-10"><circle class="cls-6" cx="21.22" cy="46.8" r="7.39"/></g><path class="cls-6" d="M20.11,49.9h-.98l-.17-1.12h-1.2l-.17,1.12h-.89l.99-6.2h1.43l.99,6.2ZM17.89,47.94h.94l-.47-3.14-.47,3.14Z"/><path class="cls-6" d="M20.61,46.36h1.77v.89h-1.77v-.89Z"/><path class="cls-6" d="M25.74,43.7v.87l-1.85,4.45h1.85v.89h-2.85v-.87l1.85-4.45h-1.76v-.89h2.76Z"/></g></g></svg>