<svg xmlns="http://www.w3.org/2000/svg" xmlns:xlink="http://www.w3.org/1999/xlink" xmlns:lucid="lucid" width="1642" height="1023.04"><g transform="translate(-99 781)" lucid:page-tab-id="9kwqhioldVIg"><path d="M0-1000h2000V500H0z" fill="#fff"/><path d="M100-765a15 15 0 0 1 15-15h1610a15 15 0 0 1 15 15v470a15 15 0 0 1-15 15H115a15 15 0 0 1-15-15z" stroke="#000" stroke-opacity="0" stroke-width="2" fill="#f2f3f5"/><use xlink:href="#a" transform="matrix(1,0,0,1,120,-760) translate(695.1333333333333 20)"/><use xlink:href="#b" transform="matrix(1,0,0,1,120,-760) translate(799.7111111111111 20)"/><path d="M160-697.17a15 15 0 0 1 15-15h1173.75a15 15 0 0 1 15 15v23.92a15 15 0 0 1-15 15H175a15 15 0 0 1-15-15z" stroke="#000" stroke-opacity="0" stroke-width="2" fill="#275db1"/><use xlink:href="#c" transform="matrix(1,0,0,1,160,-712.1665220442228) translate(560.6444444444444 33.5)"/><path d="M160-611.08a15 15 0 0 1 15-15h1173.75a15 15 0 0 1 15 15v23.9a15 15 0 0 1-15 15H175a15 15 0 0 1-15-15z" stroke="#000" stroke-opacity="0" stroke-width="2" fill="#e27b1a"/><use xlink:href="#d" transform="matrix(1,0,0,1,160,-626.0832610221114) translate(543.3111111111111 33.5)"/><path d="M1412.22-643.25a15 15 0 0 1 15-15h210a15 15 0 0 1 15 15v287.2a15 15 0 0 1-15 15h-210a15 15 0 0 1-15-15z" stroke="#000" stroke-opacity="0" stroke-width="2" fill="#e27b1a"/><use xlink:href="#e" transform="matrix(1,0,0,1,1412.2162147027047,-658.2497830663342) translate(36.95555555555556 164.09375)"/><use xlink:href="#f" transform="matrix(1,0,0,1,1412.2162147027047,-658.2497830663342) translate(141.53333333333333 164.09375)"/><path d="M1376.7-599.13h34.02" stroke="#3a414a" stroke-width="3" fill="none"/><path d="M1366.75-599.13l8.44-4.87v9.75z" stroke="#3a414a" stroke-width="3" fill="#3a414a"/><path d="M1412.22-597.65h-1.54v-2.95h1.54z" stroke="#3a414a" stroke-width=".05" fill="#3a414a"/><path d="M761.88-656.75v17.72" stroke="#3a414a" stroke-width="3" fill="none"/><path d="M763.35-656.7h-2.95v-1.55h2.95z" stroke="#3a414a" stroke-width=".05" fill="#3a414a"/><path d="M761.88-629.08l-4.88-8.45h9.75z" stroke="#3a414a" stroke-width="3" fill="#3a414a"/><path d="M1376.7-694.44h22.57" stroke="#3a414a" stroke-width="3" fill="none"/><path d="M1366.75-694.44l8.44-4.88v9.75zM1409.22-694.44l-8.45 4.88v-9.76z" stroke="#3a414a" stroke-width="3" fill="#3a414a"/><path d="M160-438.92a15 15 0 0 1 15-15h1173.75a15 15 0 0 1 15 15v82.88a15 15 0 0 1-15 15H175a15 15 0 0 1-15-15z" fill="#fff"/><path d="M162.25-446.73l.62-1 1.52-1.8 1.78-1.52 1-.62m4.33-1.8l1.15-.26 2.35-.2h3m4.02 0h6.02m4 0h6.03m4.02 0h6m4.02 0h6.02m4 0h6.03m4 0h6.03m4.02 0h6m4.03 0h6.02m4 0h6.03m4 0h6.03m4 0h6.03m4 0h6.03m4 0h6.03m4 0h6.03m4 0h6.03m4 0h6.02m4.02 0h6m4.03 0h6.02m4 0h6.02m4 0h6.03m4 0h6.03m4.02 0h6m4.03 0h6.02m4 0h6.03m4 0h6.03m4.02 0h6.02m4.02 0h6m4.03 0h6m4.02 0h6.02m4 0h6.03m4 0H489m4.02 0h6.02m4 0h6.03m4 0h6.03m4 0h6.03m4 0h6.03m4.02 0h6.02m4 0h6.03m4 0h6.03m4 0h6.03m4 0h6.02m4.02 0h6.02m4 0h6.03m4 0h6.02m4 0h6.03m4 0h6.03m4.02 0h6.02m4 0h6.03m4 0h6.03m4 0h6.03m4.02 0h6.02m4.02 0h6.02m4 0h6.03m4.02 0h6.02m4 0h6.03m4 0h6.03m4.02 0h6.02m4 0h6.03m4 0h6.03m4 0h6.03m4.02 0h6m4.03 0H800m4 0h6.03m4 0h6.03m4 0h6.03m4 0h6.02m4.02 0h6.02m4 0h6.03m4 0h6.02m4 0h6.03m4.02 0h6m4.03 0h6.02m4 0h6.03m4 0h6.03m4 0h6.03m4.03 0h6.02m4 0h6.03m4 0h6.03m4.02 0h6.02m4 0h6.03m4.02 0h6m4.02 0h6.02m4 0h6.03m4 0h6.03m4 0h6.03m4.02 0h6.02m4 0h6.03m4 0h6.03m4 0h6.03m4.02 0h6m4.03 0h6.03m4 0h6.03m4 0h6.03m4 0h6.02m4.02 0h6m4.03 0h6.02m4 0h6.02m4 0h6.03m4 0h6.03m4.02 0h6m4.03 0h6.02m4 0h6.03m4 0h6.03m4.02 0h6.02m4.02 0h6.02m4 0h6.03m4.02 0h6.02m4 0h6.03m4 0h6.03m4.02 0h6.02m4 0h6.03m4 0h6.03m4 0h6.03m4 0h6.03m4.02 0h6.02m4 0h6.03m4 0h3.02l2.35.2 1.14.27m4.32 1.8l1 .6 1.8 1.54 1.53 1.8.6 1m1.8 4.3l.27 1.16.18 2.34v3.1m0 4.15v6.22m0 4.14v6.2m0 4.15v6.22m0 4.14v6.23m0 4.14v6.22m0 4.13v6.22m0 4.14v6.2m0 4.15v3.1l-.18 2.36-.28 1.15m-1.8 4.32l-.62 1-1.52 1.8-1.8 1.52-1 .6m-4.32 1.8l-1.14.27-2.35.2h-3m-4.02 0h-6.02m-4 0h-6.02m-4.02 0h-6.02m-4 0h-6.03m-4 0h-6.02m-4 0h-6.03m-4 0h-6.03m-4.02 0h-6.02m-4 0h-6.03m-4 0h-6.03m-4 0h-6.03m-4.03 0h-6m-4.03 0h-6.02m-4 0h-6.03m-4.02 0h-6.02m-4 0h-6.03m-4.02 0h-6m-4.02 0h-6.02m-4 0h-6.03m-4 0h-6.03m-4 0h-6.03m-4.02 0h-6m-4.03 0H1115m-4 0h-6.03m-4 0h-6.03m-4 0h-6.03m-4 0h-6.03m-4 0h-6.03m-4 0h-6.03m-4 0h-6.02m-4 0h-6.03m-4.02 0h-6.02m-4 0h-6.02m-4 0h-6.03m-4 0h-6.03m-4 0h-6.03m-4.03 0h-6.02m-4 0h-6.03m-4 0h-6.03m-4.02 0h-6.02m-4 0h-6.03m-4.02 0h-6m-4.02 0h-6.02m-4 0h-6.03m-4 0h-6.03m-4 0h-6.03m-4.02 0h-6.02m-4 0h-6.03m-4 0h-6.03m-4 0h-6.03m-4 0h-6.03m-4 0h-6.03m-4 0h-6.03m-4 0H804m-4 0h-6.02m-4 0h-6.03m-4.02 0h-6.02m-4 0h-6.02m-4 0h-6.03m-4 0h-6.03m-4.02 0h-6m-4.03 0h-6.02m-4 0h-6.03m-4 0h-6.03m-4.02 0h-6.02m-4.02 0h-6m-4.03 0h-6m-4.02 0h-6.02m-4 0h-6.03m-4 0h-6.03m-4.02 0h-6m-4.03 0h-6.02m-4 0h-6.03m-4 0h-6.03m-4 0h-6.03m-4.02 0h-6.02m-4 0h-6.03m-4 0h-6.03m-4 0h-6.03m-4 0h-6.02m-4.02 0h-6.02m-4 0h-6.03m-4 0h-6.02m-4 0h-6.03m-4 0H493m-4.02 0h-6.02m-4 0h-6.03m-4 0h-6.03m-4 0h-6.03m-4.02 0h-6.02m-4.02 0h-6.02m-4 0h-6.03m-4.02 0h-6.02m-4 0h-6.03m-4.02 0h-6m-4.02 0h-6.02m-4 0h-6.03m-4 0h-6.03m-4 0h-6.03m-4.02 0h-6m-4.03 0h-6.02m-4 0h-6.03m-4 0h-6.03m-4 0h-6.03m-4 0h-6.02m-4.02 0h-6.02m-4 0h-6.03m-4 0h-6.02m-4 0h-6.03m-4.02 0h-6m-4.03 0h-6.02m-4 0h-6.03m-4 0h-6.03m-4 0h-6.03m-4.03 0h-6.02m-4 0H182m-4 0H175l-2.35-.2-1.14-.27m-4.3-1.8l-1.02-.6-1.8-1.54-1.5-1.8-.63-1m-1.8-4.3l-.26-1.15-.2-2.34v-3.1m0-4.15v-6.2m0-4.15v-6.22m0-4.14v-6.23m0-4.14v-6.22m0-4.13v-6.22m0-4.14v-6.2m0-4.15v-6.22m0-4.14v-3.12l.2-2.34.26-1.15" stroke="#e27b1a" stroke-width="2" fill="none"/><use xlink:href="#a" transform="matrix(1,0,0,1,170,-443.9167389778886) translate(441.7888888888889 20)"/><use xlink:href="#g" transform="matrix(1,0,0,1,170,-443.9167389778886) translate(546.3666666666667 20)"/><use xlink:href="#h" transform="matrix(1,0,0,1,170,-443.9167389778886) translate(624.1888888888889 20)"/><path d="M484.33-386.04a15 15 0 0 1 15-15h98.6a15 15 0 0 1 15 15v10a15 15 0 0 1-15 15h-98.6a15 15 0 0 1-15-15z" stroke="#979ea8" stroke-width="2" fill="#6f7681"/><use xlink:href="#i" transform="matrix(1,0,0,1,484.33481724461114,-401.0417028223002) translate(48.23611111111111 26)"/><path d="M626.92-386.04a15 15 0 0 1 15-15h98.58a15 15 0 0 1 15 15v10a15 15 0 0 1-15 15h-98.58a15 15 0 0 1-15-15z" stroke="#979ea8" stroke-width="2" fill="#6f7681"/><use xlink:href="#j" transform="matrix(1,0,0,1,626.9196344892224,-401.0417028223002) translate(29.06277777777778 26)"/><path d="M769.5-386.04a15 15 0 0 1 15-15h98.6a15 15 0 0 1 15 15v10a15 15 0 0 1-15 15h-98.6a15 15 0 0 1-15-15z" stroke="#979ea8" stroke-width="2" fill="#6f7681"/><use xlink:href="#k" transform="matrix(1,0,0,1,769.5044517338332,-401.0417028223002) translate(42.50277777777777 26)"/><path d="M912.1-386.04a15 15 0 0 1 15-15h98.57a15 15 0 0 1 15 15v10a15 15 0 0 1-15 15H927.1a15 15 0 0 1-15-15z" stroke="#979ea8" stroke-width="2" fill="#6f7681"/><use xlink:href="#l" transform="matrix(1,0,0,1,912.0892689784446,-401.0417028223002) translate(45.89833333333333 26)"/><path d="M1054.67-386.04a15 15 0 0 1 15-15h98.6a15 15 0 0 1 15 15v10a15 15 0 0 1-15 15h-98.6a15 15 0 0 1-15-15z" stroke="#979ea8" stroke-width="2" fill="#6f7681"/><use xlink:href="#m" transform="matrix(1,0,0,1,1054.674086223055,-401.0417028223002) translate(48.085 26)"/><path d="M341.75-386.04a15 15 0 0 1 15-15h98.58a15 15 0 0 1 15 15v10a15 15 0 0 1-15 15h-98.58a15 15 0 0 1-15-15z" stroke="#979ea8" stroke-width="2" fill="#6f7681"/><use xlink:href="#n" transform="matrix(1,0,0,1,341.7500000000002,-401.0417028223002) translate(33.72944444444445 26)"/><path d="M1197.26-386.04a15 15 0 0 1 15-15h98.58a15 15 0 0 1 15 15v10a15 15 0 0 1-15 15h-98.58a15 15 0 0 1-15-15z" stroke="#979ea8" stroke-width="2" fill="#6f7681"/><use xlink:href="#o" transform="matrix(1,0,0,1,1197.2589034676662,-401.0417028223002) translate(20.191666666666674 26)"/><path d="M160-525a15 15 0 0 1 15-15h1173.75a15 15 0 0 1 15 15v23.92a15 15 0 0 1-15 15H175a15 15 0 0 1-15-15z" stroke="#000" stroke-opacity="0" stroke-width="2" fill="#e27b1a"/><use xlink:href="#p" transform="matrix(1,0,0,1,160,-540) translate(552.1 33.5)"/><path d="M761.88-484.58v16.72" stroke="#3a414a" stroke-width="3" fill="none"/><path d="M763.35-484.55h-2.95v-1.53h2.95z" stroke="#3a414a" stroke-width=".05" fill="#3a414a"/><path d="M761.88-457.92l-4.88-8.44h9.75z" stroke="#3a414a" stroke-width="3" fill="#3a414a"/><path d="M761.88-570.67v17.73" stroke="#3a414a" stroke-width="3" fill="none"/><path d="M763.35-570.63h-2.95v-1.54h2.95z" stroke="#3a414a" stroke-width=".05" fill="#3a414a"/><path d="M761.88-543l-4.88-8.44h9.75z" stroke="#3a414a" stroke-width="3" fill="#3a414a"/><path d="M1376.7-513.04h34.02" stroke="#3a414a" stroke-width="3" fill="none"/><path d="M1366.75-513.04l8.44-4.88v9.75z" stroke="#3a414a" stroke-width="3" fill="#3a414a"/><path d="M1412.22-511.57h-1.54v-2.95h1.54z" stroke="#3a414a" stroke-width=".05" fill="#3a414a"/><path d="M1377.7-397.48h33.01" stroke="#3a414a" stroke-width="3" fill="none"/><path d="M1367.75-397.48l8.44-4.87v9.75z" stroke="#3a414a" stroke-width="3" fill="#3a414a"/><path d="M1412.22-396h-1.54v-2.95h1.54z" stroke="#3a414a" stroke-width=".05" fill="#3a414a"/><path d="M341.75-203.96a15 15 0 0 1 15-15h669.15a15 15 0 0 1 15 15v70a15 15 0 0 1-15 15H356.75a15 15 0 0 1-15-15z" stroke="#000" stroke-opacity="0" stroke-width="2" fill="#e27b1a"/><use xlink:href="#q" transform="matrix(1,0,0,1,341.75000000000006,-218.9584418001437) translate(266.93333333333334 57.5)"/><use xlink:href="#r" transform="matrix(1,0,0,1,341.75000000000006,-218.9584418001437) translate(333.1111111111111 57.5)"/><path d="M1055.16-203.96a15 15 0 0 1 15-15h498.6a15 15 0 0 1 15 15v70a15 15 0 0 1-15 15h-498.6a15 15 0 0 1-15-15z" fill="#fff"/><path d="M1057.4-211.77l.63-1 1.53-1.8 1.8-1.52 1-.6m4.3-1.8l1.16-.27 2.35-.2h3m3.97 0h6m3.98 0h5.98m4 0h5.97m4 0h5.97m4 0h5.98m3.98 0h6m3.98 0h5.98m4 0h5.97m4 0h5.97m4 0h5.97m4 0h5.98m3.98 0h6m3.98 0h6m3.98 0h5.98m4 0h5.97m4 0h5.97m4 0h5.98m3.98 0h6m3.98 0h5.98m4 0h5.97m3.98 0h5.98m4 0h5.97m4 0h5.98m4 0h5.98m4 0h5.97m4 0h5.97m4 0h5.97m3.98 0h5.98m4 0h5.98m4 0h5.97m4 0h5.98m4 0h5.97m4 0h5.97m4 0h5.97m3.98 0h6m3.97 0h6m3.98 0h5.98m4 0h5.98m4 0h5.97m4 0h5.98m3.98 0h6m3.98 0h6m3.98 0h5.98m4 0h5.97m4 0h5.98m4 0h5.97m4 0h5.98m4 0h5.97m4 0h5.97m4 0h2.98l2.35.2 1.14.27m4.32 1.8l1 .6 1.8 1.53 1.53 1.8.6 1m1.8 4.32l.27 1.14.18 2.34v3m0 4v6m0 4v6m0 4v6m0 4v6m0 4v6m0 4v6m0 4v3l-.18 2.35-.28 1.13m-1.8 4.33l-.62 1-1.52 1.8-1.8 1.52-1 .6m-4.32 1.8l-1.14.28-2.35.18h-3m-3.98 0h-5.98m-4 0h-5.98m-4 0h-5.98m-3.98 0h-6m-3.98 0h-5.98m-4 0h-5.97m-4 0h-5.97m-4 0H1486m-3.98 0h-6m-3.97 0h-6m-3.98 0h-5.98m-4 0h-5.97m-4 0h-5.97m-4 0h-5.98m-3.98 0h-6m-3.98 0h-6m-3.98 0h-5.98m-4 0h-5.97m-4 0h-5.97m-4 0h-5.97m-4 0h-5.98m-4 0h-5.97m-4 0h-5.97m-3.98 0h-5.98m-4 0h-5.97m-4 0h-5.98m-4 0h-5.98m-4 0h-5.97m-4 0h-5.97m-4 0h-5.97m-3.98 0h-5.98m-4 0h-5.98m-3.98 0h-6m-3.98 0h-5.98m-4 0h-5.97m-4 0h-5.97m-4 0h-5.97m-3.98 0h-6m-3.97 0h-6m-3.98 0h-5.98m-4 0h-5.98m-4 0h-5.97m-4 0H1137m-4 0H1127m-3.98 0h-6m-3.98 0h-5.98m-4 0h-5.97m-4 0h-5.98m-4 0h-5.97m-4 0h-3l-2.33-.18-1.15-.28m-4.32-1.8l-1-.6-1.8-1.53-1.52-1.8-.62-1m-1.78-4.32l-.27-1.14-.18-2.36v-3m0-4v-6m0-4v-6m0-4v-6m0-4v-6m0-4v-6m0-4v-6m0-4v-3l.18-2.34.28-1.15" stroke="#e27b1a" stroke-width="2" fill="none"/><use xlink:href="#s" transform="matrix(1,0,0,1,1065.1651827553887,-208.9584418001437) translate(122.33333333333334 20)"/><use xlink:href="#t" transform="matrix(1,0,0,1,1065.1651827553887,-208.9584418001437) translate(188.51111111111112 20)"/><use xlink:href="#u" transform="matrix(1,0,0,1,1065.1651827553887,-208.9584418001437) translate(293.08888888888885 20)"/><path d="M1075.16-154.96a15 15 0 0 1 15-15h131.47a15 15 0 0 1 15 15v10a15 15 0 0 1-15 15h-131.47a15 15 0 0 1-15-15z" stroke="#000" stroke-opacity="0" stroke-width="2" fill="#e27b1a"/><use xlink:href="#v" transform="matrix(1,0,0,1,1075.165182755389,-169.9584418001437) translate(22.12277777777778 26)"/><use xlink:href="#w" transform="matrix(1,0,0,1,1075.165182755389,-169.9584418001437) translate(84.505 26)"/><path d="M1250.75-154.96a15 15 0 0 1 15-15h131.47a15 15 0 0 1 15 15v10a15 15 0 0 1-15 15h-131.47a15 15 0 0 1-15-15z" stroke="#000" stroke-opacity="0" stroke-width="2" fill="#e27b1a"/><use xlink:href="#x" transform="matrix(1,0,0,1,1250.75,-169.9584418001437) translate(37.153888888888886 26)"/><use xlink:href="#y" transform="matrix(1,0,0,1,1250.75,-169.9584418001437) translate(72.95833333333333 26)"/><path d="M1426.34-154.96a15 15 0 0 1 15-15h101.4a15 15 0 0 1 15 15v10a15 15 0 0 1-15 15h-101.4a15 15 0 0 1-15-15z" stroke="#000" stroke-opacity="0" stroke-width="2" fill="#e27b1a"/><use xlink:href="#z" transform="matrix(1,0,0,1,1426.3348172446113,-169.9584418001437) translate(44.80277777777777 26)"/><path d="M1118.97-346.45v112.9" stroke="#3a414a" stroke-width="3" fill="none"/><path d="M1118.97-357.04l5.25 9.1h-10.5zM1118.97-222.96l-5.25-9.1h10.5z" stroke="#3a414a" stroke-width="3" fill="#3a414a"/><path d="M548.63-347.1v115.2" stroke="#3a414a" stroke-width="3" fill="none"/><path d="M548.63-357.04l4.87 8.44h-9.75zM548.63-221.96l-4.88-8.44h9.75z" stroke="#3a414a" stroke-width="3" fill="#3a414a"/><path d="M691.2-347.1v57.54a.06.06 0 0 0 .07.06.06.06 0 0 1 .05.06v57.54" stroke="#3a414a" stroke-width="3" fill="none"/><path d="M691.2-357.04l4.9 8.44h-9.76zM691.32-221.96l-4.87-8.44h9.75z" stroke="#3a414a" stroke-width="3" fill="#3a414a"/><path d="M833.8-347.1v115.2" stroke="#3a414a" stroke-width="3" fill="none"/><path d="M833.8-357.04l4.87 8.44h-9.75zM833.8-221.96l-4.88-8.44h9.75z" stroke="#3a414a" stroke-width="3" fill="#3a414a"/><path d="M976.38-346.45v113.9" stroke="#3a414a" stroke-width="3" fill="none"/><path d="M976.38-357.04l5.25 9.1h-10.5zM976.38-221.96l-5.25-9.1h10.5z" stroke="#3a414a" stroke-width="3" fill="#3a414a"/><path d="M1665.8-483h10.2a4 4 0 0 1 4 4v396.04a4 4 0 0 1-4 4H695.32a4 4 0 0 1-4-4v-22.4" stroke="#3a414a" stroke-width="3" fill="none"/><path d="M1655.22-483l9.1-5.25v10.5zM691.32-115.96l5.25 9.1h-10.5z" stroke="#3a414a" stroke-width="3" fill="#3a414a"/><path d="M1665.8-483h10.2a4 4 0 0 1 4 4v396.04a4 4 0 0 1-4 4h-197.76a4 4 0 0 1-4-4v-21.4" stroke="#3a414a" stroke-width="3" fill="none"/><path d="M1655.22-483l9.1-5.25v10.5zM1474.24-114.96l5.25 9.1H1469z" stroke="#3a414a" stroke-width="3" fill="#3a414a"/><path d="M1665.8-483h10.2a4 4 0 0 1 4 4v396.04a4 4 0 0 1-4 4h-340.53a4 4 0 0 1-4-4v-21.4" stroke="#3a414a" stroke-width="3" fill="none"/><path d="M1655.22-483l9.1-5.25v10.5zM1331.47-114.96l5.25 9.1h-10.5z" stroke="#3a414a" stroke-width="3" fill="#3a414a"/><path d="M1665.8-483h10.2a4 4 0 0 1 4 4v396.04a4 4 0 0 1-4 4h-518.45a4 4 0 0 1-4-4v-21.4" stroke="#3a414a" stroke-width="3" fill="none"/><path d="M1655.22-483l9.1-5.25v10.5zM1153.55-114.96l5.25 9.1h-10.5z" stroke="#3a414a" stroke-width="3" fill="#3a414a"/><path d="M343.75-3.96a15 15 0 0 1 15-15h1223.8a15 15 0 0 1 15 15v70a15 15 0 0 1-15 15H358.76a15 15 0 0 1-15-15z" stroke="#000" stroke-opacity="0" stroke-width="2" fill="#bb4526"/><use xlink:href="#A" transform="matrix(1,0,0,1,343.75,-18.958441800143646) translate(520.5444444444445 57.5)"/><use xlink:href="#B" transform="matrix(1,0,0,1,343.75,-18.958441800143646) translate(572.9444444444445 57.5)"/><use xlink:href="#C" transform="matrix(1,0,0,1,343.75,-18.958441800143646) translate(656.1 57.5)"/><path d="M703.75 156.04a15 15 0 0 1 15-15h863.8a15 15 0 0 1 15 15v70a15 15 0 0 1-15 15h-863.8a15 15 0 0 1-15-15z" stroke="#000" stroke-opacity="0" stroke-width="2" fill="#979ea8"/><use xlink:href="#D" transform="matrix(1,0,0,1,703.75,141.04155819985635) translate(317.3 45)"/><use xlink:href="#E" transform="matrix(1,0,0,1,703.75,141.04155819985635) translate(397.3888888888889 45)"/><use xlink:href="#F" transform="matrix(1,0,0,1,703.75,141.04155819985635) translate(467.0111111111111 45)"/><use xlink:href="#G" transform="matrix(1,0,0,1,703.75,141.04155819985635) translate(481.70000000000005 45)"/><use xlink:href="#H" transform="matrix(1,0,0,1,703.75,141.04155819985635) translate(270.12 72.36)"/><use xlink:href="#I" transform="matrix(1,0,0,1,703.75,141.04155819985635) translate(305.0177777777778 72.36)"/><use xlink:href="#J" transform="matrix(1,0,0,1,703.75,141.04155819985635) translate(343.7733333333333 72.36)"/><use xlink:href="#K" transform="matrix(1,0,0,1,703.75,141.04155819985635) translate(407.0444444444445 72.36)"/><use xlink:href="#L" transform="matrix(1,0,0,1,703.75,141.04155819985635) translate(482.6355555555556 72.36)"/><use xlink:href="#M" transform="matrix(1,0,0,1,703.75,141.04155819985635) translate(520.2 72.36)"/><use xlink:href="#N" transform="matrix(1,0,0,1,703.75,141.04155819985635) translate(578.4044444444444 72.36)"/><path d="M1150.66 82.54v44.9" stroke="#3a414a" stroke-width="3" fill="none"/><path d="M1152.13 82.58h-2.95v-1.54h2.95z" stroke="#3a414a" stroke-width=".05" fill="#3a414a"/><path d="M1150.66 138.04l-5.25-9.1h10.5z" stroke="#3a414a" stroke-width="3" fill="#3a414a"/><path d="M1599.06 21.52H1686a4 4 0 0 0 4-4v-526.28a4 4 0 0 0-4-4h-20.2" stroke="#3a414a" stroke-width="3" fill="none"/><path d="M1599.1 23h-1.54v-2.96h1.54z" stroke="#3a414a" stroke-width=".05" fill="#3a414a"/><path d="M1655.22-512.76l9.1-5.25v10.5z" stroke="#3a414a" stroke-width="3" fill="#3a414a"/><path d="M406.04-347.1v115.2" stroke="#3a414a" stroke-width="3" fill="none"/><path d="M406.04-357.04l4.88 8.44h-9.75zM406.04-221.96l-4.87-8.44h9.75z" stroke="#3a414a" stroke-width="3" fill="#3a414a"/><path d="M1261.55-347.1v114.2" stroke="#3a414a" stroke-width="3" fill="none"/><path d="M1261.55-357.04l4.88 8.44h-9.75zM1261.55-222.96l-4.87-8.44h9.75z" stroke="#3a414a" stroke-width="3" fill="#3a414a"/><path d="M343.75 156.04a15 15 0 0 1 15-15h290a15 15 0 0 1 15 15v70a15 15 0 0 1-15 15h-290a15 15 0 0 1-15-15z" stroke="#000" stroke-opacity="0" stroke-width="2" fill="#979ea8"/><g><use xlink:href="#e" transform="matrix(1,0,0,1,343.75,141.04155819985635) translate(79.87777777777778 45)"/><use xlink:href="#O" transform="matrix(1,0,0,1,343.75,141.04155819985635) translate(184.45555555555555 45)"/><use xlink:href="#P" transform="matrix(1,0,0,1,343.75,141.04155819985635) translate(71.56444444444443 72.36)"/><use xlink:href="#Q" transform="matrix(1,0,0,1,343.75,141.04155819985635) translate(165.57333333333332 72.36)"/></g><path d="M503.75 82.54v44.9" stroke="#3a414a" stroke-width="3" fill="none"/><path d="M505.23 82.58h-2.96v-1.54h2.96z" stroke="#3a414a" stroke-width=".05" fill="#3a414a"/><path d="M503.75 138.04l-5.25-9.1H509z" stroke="#3a414a" stroke-width="3" fill="#3a414a"/><path d="M199.16-386.04a15 15 0 0 1 15-15h98.6a15 15 0 0 1 15 15v10a15 15 0 0 1-15 15h-98.6a15 15 0 0 1-15-15z" stroke="#979ea8" stroke-width="2" fill="#6f7681"/><g><use xlink:href="#R" transform="matrix(1,0,0,1,199.1651827553893,-401.0417028223002) translate(44.18277777777778 26)"/></g><path d="M1412.22-706.4a15 15 0 0 1 15-15h210a15 15 0 0 1 15 15v23.92a15 15 0 0 1-15 15h-210a15 15 0 0 1-15-15z" stroke="#000" stroke-opacity="0" stroke-width="2" fill="#275db1"/><g><use xlink:href="#S" transform="matrix(1,0,0,1,1412.2162147027047,-721.3984701226934) translate(89.24444444444444 33.5)"/></g><path d="M1599.06 31.04H1694a6 6 0 0 0 6-6v-713.48a6 6 0 0 0-6-6h-28.84" stroke="#3a414a" stroke-width="3" fill="none"/><path d="M1599.1 32.52h-1.54v-2.95h1.54z" stroke="#3a414a" stroke-width=".05" fill="#3a414a"/><path d="M1655.22-694.44l8.44-4.88v9.75z" stroke="#3a414a" stroke-width="3" fill="#3a414a"/><path d="M1399.32-643.8h-4.84a6 6 0 0 1-6-6v-18.22a6 6 0 0 0-6-6h-5.8" stroke="#3a414a" stroke-width="3" fill="none"/><path d="M1409.26-643.8l-8.44 4.87v-9.75zM1366.75-674.02l8.44-4.87v9.76z" stroke="#3a414a" stroke-width="3" fill="#3a414a"/><defs><path d="M376-109c57 1 96-12 130-32l28 112C494 1 420 14 351 14 136 14 41-127 38-350c-3-258 153-398 418-356 28 4 50 12 68 19l-27 116c-35-16-76-21-131-21-127 0-187 96-184 242 2 141 56 237 194 241" id="T"/><path d="M269 14C107 14 36-88 33-250c-2-161 81-264 236-264 162 0 233 102 235 264 2 161-80 264-235 264zm0-418c-78 0-104 61-102 154 1 82 21 154 102 154 80 0 101-62 101-154 0-83-21-154-101-154" id="U"/><path d="M557-399c-51 0-73 31-86 71V0H341v-272c-3-78 0-124-67-127-48-2-73 31-87 66V0H57v-500h101l15 66h4c32-41 75-82 150-80 72 1 105 28 126 85 29-48 73-83 146-85 130-3 157 84 156 214V0H625v-281c-3-70-2-118-68-118" id="V"/><path d="M291-90c49 0 97-19 123-38l43 85c-40 32-117 57-191 57C103 14 34-89 33-250c-2-167 81-264 240-264 129 0 199 68 200 202 0 33-4 65-10 95H163c5 84 39 127 128 127zm61-208c5-67-19-112-81-112-71-1-98 47-105 112h186" id="W"/><path d="M177-434c23-61 95-96 173-66l-17 122c-64-28-134-1-146 55V0H57v-500h101l15 66h4" id="X"/><path d="M284-101c43 1 72-13 97-29l30 99c-37 28-97 45-160 45C91 14 37-90 33-250c-5-193 117-299 311-255 22 6 43 14 61 23l-31 106c-30-14-55-23-97-23-82 0-111 56-110 149 1 86 32 146 117 149" id="Y"/><g id="a"><use transform="matrix(0.022222222222222223,0,0,0.022222222222222223,0,0)" xlink:href="#T"/><use transform="matrix(0.022222222222222223,0,0,0.022222222222222223,11.622222222222222,0)" xlink:href="#U"/><use transform="matrix(0.022222222222222223,0,0,0.022222222222222223,23.555555555555557,0)" xlink:href="#V"/><use transform="matrix(0.022222222222222223,0,0,0.022222222222222223,41.44444444444444,0)" xlink:href="#V"/><use transform="matrix(0.022222222222222223,0,0,0.022222222222222223,59.33333333333333,0)" xlink:href="#W"/><use transform="matrix(0.022222222222222223,0,0,0.022222222222222223,70.62222222222222,0)" xlink:href="#X"/><use transform="matrix(0.022222222222222223,0,0,0.022222222222222223,78.42222222222222,0)" xlink:href="#Y"/><use transform="matrix(0.022222222222222223,0,0,0.022222222222222223,87.66666666666666,0)" xlink:href="#W"/></g><path d="M60-695c185-21 473-52 471 158-1 92-49 143-125 162v6c89 16 147 67 147 172C553-34 410 14 236 10 176 9 111 6 60-5v-690zm132 586c98 16 219 8 219-95 1-107-113-99-219-98v193zm200-400c5-96-111-93-200-84v187c105 7 195-13 200-103" id="Z"/><path d="M68-500h130V0H68v-500zm62-73c-46 0-81-26-81-68s35-70 81-70c45 0 85 29 85 70 0 42-40 68-85 68" id="aa"/><path d="M178 14C100 13 61-20 61-100v-600h130v532c1 39 5 67 38 67 22 0 33-3 52-11l14 102c-24 12-77 25-117 24" id="ab"/><path d="M278 14c-42 0-63-5-91-19v205H57v-700h95l15 60h4c33-47 73-74 148-74 142 0 188 93 188 251 0 164-68 277-229 277zm95-280c0-79-20-138-93-138-57 0-77 30-93 76v208c20 15 38 25 74 24 90-3 112-66 112-170" id="ac"/><path d="M306-378c-38-49-172-17-221 4l-31-97c53-24 132-39 210-39 122 0 181 55 180 175-1 112-20 242 11 336H349l-21-69h-5c-28 41-74 78-147 76C81 5 23-45 23-138c0-142 140-164 291-160 5-37 4-65-8-80zM157-158c-3 37 24 59 62 59 49 0 79-27 96-55v-65c-71-4-153-3-158 61" id="ad"/><path d="M208 14C110 12 74-35 74-138v-252H5v-110h69v-94l130-37v131h122v110H204v192c2 58 2 97 50 97 30 0 44-6 67-16l23 100c-34 16-86 31-136 31" id="ae"/><g id="b"><use transform="matrix(0.022222222222222223,0,0,0.022222222222222223,0,0)" xlink:href="#Z"/><use transform="matrix(0.022222222222222223,0,0,0.022222222222222223,13.133333333333335,0)" xlink:href="#U"/><use transform="matrix(0.022222222222222223,0,0,0.022222222222222223,25.066666666666666,0)" xlink:href="#aa"/><use transform="matrix(0.022222222222222223,0,0,0.022222222222222223,31.044444444444444,0)" xlink:href="#ab"/><use transform="matrix(0.022222222222222223,0,0,0.022222222222222223,37.57777777777778,0)" xlink:href="#W"/><use transform="matrix(0.022222222222222223,0,0,0.022222222222222223,48.86666666666668,0)" xlink:href="#X"/><use transform="matrix(0.022222222222222223,0,0,0.022222222222222223,56.66666666666667,0)" xlink:href="#ac"/><use transform="matrix(0.022222222222222223,0,0,0.022222222222222223,68.66666666666667,0)" xlink:href="#ab"/><use transform="matrix(0.022222222222222223,0,0,0.022222222222222223,75.2,0)" xlink:href="#ad"/><use transform="matrix(0.022222222222222223,0,0,0.022222222222222223,86.22222222222223,0)" xlink:href="#ae"/><use transform="matrix(0.022222222222222223,0,0,0.022222222222222223,93.86666666666667,0)" xlink:href="#W"/></g><path fill="#fff" d="M200-90c53 9 88-53 47-80-80-53-213-55-211-192 2-102 65-152 171-152 67 0 135 17 175 39l-29 94c-31-11-84-29-129-29-54 0-78 51-41 74 81 50 213 53 211 187-2 110-75 163-194 163C133 14 65-7 25-31l36-97c31 17 89 40 139 38" id="af"/><path fill="#fff" d="M284-101c43 1 72-13 97-29l30 99c-37 28-97 45-160 45C91 14 37-90 33-250c-5-193 117-299 311-255 22 6 43 14 61 23l-31 106c-30-14-55-23-97-23-82 0-111 56-110 149 1 86 32 146 117 149" id="ag"/><path fill="#fff" d="M177-434c23-61 95-96 173-66l-17 122c-64-28-134-1-146 55V0H57v-500h101l15 66h4" id="ah"/><path fill="#fff" d="M68-500h130V0H68v-500zm62-73c-46 0-81-26-81-68s35-70 81-70c45 0 85 29 85 70 0 42-40 68-85 68" id="ai"/><path fill="#fff" d="M278 14c-42 0-63-5-91-19v205H57v-700h95l15 60h4c33-47 73-74 148-74 142 0 188 93 188 251 0 164-68 277-229 277zm95-280c0-79-20-138-93-138-57 0-77 30-93 76v208c20 15 38 25 74 24 90-3 112-66 112-170" id="aj"/><path fill="#fff" d="M208 14C110 12 74-35 74-138v-252H5v-110h69v-94l130-37v131h122v110H204v192c2 58 2 97 50 97 30 0 44-6 67-16l23 100c-34 16-86 31-136 31" id="ak"/><path fill="#fff" d="M122 11c-47 0-80-31-80-77s33-76 80-76c49 0 82 29 82 76s-33 77-82 77" id="al"/><path fill="#fff" d="M-16 92c72 8 85-39 85-108v-484h130V21c7 140-74 212-215 180V92zm148-665c-46 0-81-26-81-68s35-70 81-70c45 0 85 29 85 70 0 42-40 68-85 68" id="am"/><g id="c"><use transform="matrix(0.022222222222222223,0,0,0.022222222222222223,0,0)" xlink:href="#af"/><use transform="matrix(0.022222222222222223,0,0,0.022222222222222223,9.377777777777778,0)" xlink:href="#ag"/><use transform="matrix(0.022222222222222223,0,0,0.022222222222222223,19,0)" xlink:href="#ah"/><use transform="matrix(0.022222222222222223,0,0,0.022222222222222223,26.8,0)" xlink:href="#ai"/><use transform="matrix(0.022222222222222223,0,0,0.022222222222222223,32.77777777777778,0)" xlink:href="#aj"/><use transform="matrix(0.022222222222222223,0,0,0.022222222222222223,44.77777777777778,0)" xlink:href="#ak"/><use transform="matrix(0.022222222222222223,0,0,0.022222222222222223,52.53333333333334,0)" xlink:href="#af"/><use transform="matrix(0.022222222222222223,0,0,0.022222222222222223,61.91111111111111,0)" xlink:href="#al"/><use transform="matrix(0.022222222222222223,0,0,0.022222222222222223,67.37777777777778,0)" xlink:href="#am"/><use transform="matrix(0.022222222222222223,0,0,0.022222222222222223,73.33333333333334,0)" xlink:href="#af"/></g><path fill="#fff" d="M269 14C107 14 36-88 33-250c-2-161 81-264 236-264 162 0 233 102 235 264 2 161-80 264-235 264zm0-418c-78 0-104 61-102 154 1 82 21 154 102 154 80 0 101-62 101-154 0-83-21-154-101-154" id="an"/><path fill="#fff" d="M557-399c-51 0-73 31-86 71V0H341v-272c-3-78 0-124-67-127-48-2-73 31-87 66V0H57v-500h101l15 66h4c32-41 75-82 150-80 72 1 105 28 126 85 29-48 73-83 146-85 130-3 157 84 156 214V0H625v-281c-3-70-2-118-68-118" id="ao"/><path fill="#fff" d="M291-90c49 0 97-19 123-38l43 85c-40 32-117 57-191 57C103 14 34-89 33-250c-2-167 81-264 240-264 129 0 199 68 200 202 0 33-4 65-10 95H163c5 84 39 127 128 127zm61-208c5-67-19-112-81-112-71-1-98 47-105 112h186" id="ap"/><g id="d"><use transform="matrix(0.022222222222222223,0,0,0.022222222222222223,0,0)" xlink:href="#ag"/><use transform="matrix(0.022222222222222223,0,0,0.022222222222222223,9.244444444444444,0)" xlink:href="#an"/><use transform="matrix(0.022222222222222223,0,0,0.022222222222222223,21.177777777777777,0)" xlink:href="#ao"/><use transform="matrix(0.022222222222222223,0,0,0.022222222222222223,39.06666666666666,0)" xlink:href="#ao"/><use transform="matrix(0.022222222222222223,0,0,0.022222222222222223,56.95555555555555,0)" xlink:href="#ap"/><use transform="matrix(0.022222222222222223,0,0,0.022222222222222223,68.24444444444444,0)" xlink:href="#ah"/><use transform="matrix(0.022222222222222223,0,0,0.022222222222222223,76.04444444444444,0)" xlink:href="#ag"/><use transform="matrix(0.022222222222222223,0,0,0.022222222222222223,85.28888888888888,0)" xlink:href="#ap"/><use transform="matrix(0.022222222222222223,0,0,0.022222222222222223,96.57777777777775,0)" xlink:href="#al"/><use transform="matrix(0.022222222222222223,0,0,0.022222222222222223,102.04444444444442,0)" xlink:href="#am"/><use transform="matrix(0.022222222222222223,0,0,0.022222222222222223,108,0)" xlink:href="#af"/></g><path fill="#fff" d="M376-109c57 1 96-12 130-32l28 112C494 1 420 14 351 14 136 14 41-127 38-350c-3-258 153-398 418-356 28 4 50 12 68 19l-27 116c-35-16-76-21-131-21-127 0-187 96-184 242 2 141 56 237 194 241" id="aq"/><g id="e"><use transform="matrix(0.022222222222222223,0,0,0.022222222222222223,0,0)" xlink:href="#aq"/><use transform="matrix(0.022222222222222223,0,0,0.022222222222222223,11.622222222222222,0)" xlink:href="#an"/><use transform="matrix(0.022222222222222223,0,0,0.022222222222222223,23.555555555555557,0)" xlink:href="#ao"/><use transform="matrix(0.022222222222222223,0,0,0.022222222222222223,41.44444444444444,0)" xlink:href="#ao"/><use transform="matrix(0.022222222222222223,0,0,0.022222222222222223,59.33333333333333,0)" xlink:href="#ap"/><use transform="matrix(0.022222222222222223,0,0,0.022222222222222223,70.62222222222222,0)" xlink:href="#ah"/><use transform="matrix(0.022222222222222223,0,0,0.022222222222222223,78.42222222222222,0)" xlink:href="#ag"/><use transform="matrix(0.022222222222222223,0,0,0.022222222222222223,87.66666666666666,0)" xlink:href="#ap"/></g><path fill="#fff" d="M60-695c185-21 473-52 471 158-1 92-49 143-125 162v6c89 16 147 67 147 172C553-34 410 14 236 10 176 9 111 6 60-5v-690zm132 586c98 16 219 8 219-95 1-107-113-99-219-98v193zm200-400c5-96-111-93-200-84v187c105 7 195-13 200-103" id="ar"/><path fill="#fff" d="M178 14C100 13 61-20 61-100v-600h130v532c1 39 5 67 38 67 22 0 33-3 52-11l14 102c-24 12-77 25-117 24" id="as"/><path fill="#fff" d="M222-207h-35V0H57v-700h130v413l30-14 114-199h143L354-310l-51 38 55 39L493 0H344" id="at"/><g id="f"><use transform="matrix(0.022222222222222223,0,0,0.022222222222222223,0,0)" xlink:href="#ar"/><use transform="matrix(0.022222222222222223,0,0,0.022222222222222223,13.133333333333335,0)" xlink:href="#as"/><use transform="matrix(0.022222222222222223,0,0,0.022222222222222223,19.666666666666668,0)" xlink:href="#an"/><use transform="matrix(0.022222222222222223,0,0,0.022222222222222223,31.6,0)" xlink:href="#ag"/><use transform="matrix(0.022222222222222223,0,0,0.022222222222222223,41.22222222222222,0)" xlink:href="#at"/><use transform="matrix(0.022222222222222223,0,0,0.022222222222222223,52.13333333333333,0)" xlink:href="#af"/></g><path d="M251 11C190 11 116 7 60 1v-701c61-8 136-9 204-10 233 0 345 125 345 354 0 233-120 367-358 367zm214-367c0-166-88-259-268-228v469c184 30 268-70 268-241" id="au"/><path d="M54-345h251v115H54v-115" id="av"/><path d="M338-514c121 0 155 79 155 203V0H363v-284c-1-72-12-113-77-115-52-1-86 36-99 75V0H57v-500h103l15 66h4c32-43 81-80 159-80" id="aw"/><g id="g"><use transform="matrix(0.022222222222222223,0,0,0.022222222222222223,0,0)" xlink:href="#au"/><use transform="matrix(0.022222222222222223,0,0,0.022222222222222223,14.377777777777778,0)" xlink:href="#X"/><use transform="matrix(0.022222222222222223,0,0,0.022222222222222223,22.177777777777777,0)" xlink:href="#U"/><use transform="matrix(0.022222222222222223,0,0,0.022222222222222223,34.111111111111114,0)" xlink:href="#ac"/><use transform="matrix(0.022222222222222223,0,0,0.022222222222222223,46.111111111111114,0)" xlink:href="#av"/><use transform="matrix(0.022222222222222223,0,0,0.022222222222222223,54.111111111111114,0)" xlink:href="#aa"/><use transform="matrix(0.022222222222222223,0,0,0.022222222222222223,60.08888888888889,0)" xlink:href="#aw"/></g><path d="M200-90c53 9 88-53 47-80-80-53-213-55-211-192 2-102 65-152 171-152 67 0 135 17 175 39l-29 94c-31-11-84-29-129-29-54 0-78 51-41 74 81 50 213 53 211 187-2 110-75 163-194 163C133 14 65-7 25-31l36-97c31 17 89 40 139 38" id="ax"/><g id="h"><use transform="matrix(0.022222222222222223,0,0,0.022222222222222223,0,0)" xlink:href="#T"/><use transform="matrix(0.022222222222222223,0,0,0.022222222222222223,11.622222222222222,0)" xlink:href="#U"/><use transform="matrix(0.022222222222222223,0,0,0.022222222222222223,23.555555555555557,0)" xlink:href="#V"/><use transform="matrix(0.022222222222222223,0,0,0.022222222222222223,41.44444444444444,0)" xlink:href="#ac"/><use transform="matrix(0.022222222222222223,0,0,0.022222222222222223,53.44444444444445,0)" xlink:href="#U"/><use transform="matrix(0.022222222222222223,0,0,0.022222222222222223,65.37777777777778,0)" xlink:href="#aw"/><use transform="matrix(0.022222222222222223,0,0,0.022222222222222223,77.4888888888889,0)" xlink:href="#W"/><use transform="matrix(0.022222222222222223,0,0,0.022222222222222223,88.77777777777779,0)" xlink:href="#aw"/><use transform="matrix(0.022222222222222223,0,0,0.022222222222222223,100.88888888888889,0)" xlink:href="#ae"/><use transform="matrix(0.022222222222222223,0,0,0.022222222222222223,108.64444444444447,0)" xlink:href="#ax"/></g><path fill="#fff" d="M306-378c-38-49-172-17-221 4l-31-97c53-24 132-39 210-39 122 0 181 55 180 175-1 112-20 242 11 336H349l-21-69h-5c-28 41-74 78-147 76C81 5 23-45 23-138c0-142 140-164 291-160 5-37 4-65-8-80zM157-158c-3 37 24 59 62 59 49 0 79-27 96-55v-65c-71-4-153-3-158 61" id="ay"/><g id="i"><use transform="matrix(0.017777777777777778,0,0,0.017777777777777778,0,0)" xlink:href="#aq"/><use transform="matrix(0.017777777777777778,0,0,0.017777777777777778,9.742222222222221,0)" xlink:href="#ay"/><use transform="matrix(0.017777777777777778,0,0,0.017777777777777778,18.56,0)" xlink:href="#ah"/><use transform="matrix(0.017777777777777778,0,0,0.017777777777777778,25.333333333333336,0)" xlink:href="#ak"/></g><path fill="#fff" d="M339-514c122 0 154 79 154 203V0H363v-284c-2-74-11-115-79-115-48 0-88 39-97 80V0H57v-700h130v256h4c32-41 74-70 148-70" id="az"/><path fill="#fff" d="M211 14C88 14 52-63 52-189v-311h130v284c2 72 6 113 71 115 52 1 83-37 98-76v-323h130c6 167-14 358 16 500h-98l-23-74h-4c-29 48-84 88-161 88" id="aA"/><g id="j"><use transform="matrix(0.017777777777777778,0,0,0.017777777777777778,0,0)" xlink:href="#aq"/><use transform="matrix(0.017777777777777778,0,0,0.017777777777777778,9.937777777777777,0)" xlink:href="#az"/><use transform="matrix(0.017777777777777778,0,0,0.017777777777777778,19.626666666666665,0)" xlink:href="#ap"/><use transform="matrix(0.017777777777777778,0,0,0.017777777777777778,28.568888888888885,0)" xlink:href="#ag"/><use transform="matrix(0.017777777777777778,0,0,0.017777777777777778,36.266666666666666,0)" xlink:href="#at"/><use transform="matrix(0.017777777777777778,0,0,0.017777777777777778,44.568888888888885,0)" xlink:href="#an"/><use transform="matrix(0.017777777777777778,0,0,0.017777777777777778,54.11555555555555,0)" xlink:href="#aA"/><use transform="matrix(0.017777777777777778,0,0,0.017777777777777778,63.67999999999999,0)" xlink:href="#ak"/></g><path fill="#fff" d="M335 14C121 14 41-135 38-350c-3-216 93-364 297-364 213 0 294 149 297 364 2 215-94 364-297 364zm0-606c-118 0-155 101-153 242 2 128 30 242 153 242 120 0 155-98 153-242-2-127-29-242-153-242" id="aB"/><path fill="#fff" d="M261-512c41 0 62 4 91 15v-203h130v524c0 66 0 116 10 177h-93l-18-65h-4c-25 45-77 80-146 78C90 11 33-84 33-242c0-161 72-270 228-270zm-94 274c0 76 22 141 94 142 54 0 79-28 91-72v-212c-20-15-39-23-75-22-89 3-110 60-110 164" id="aC"/><g id="k"><use transform="matrix(0.017777777777777778,0,0,0.017777777777777778,0,0)" xlink:href="#aB"/><use transform="matrix(0.017777777777777778,0,0,0.017777777777777778,11.911111111111111,0)" xlink:href="#ah"/><use transform="matrix(0.017777777777777778,0,0,0.017777777777777778,18.151111111111113,0)" xlink:href="#aC"/><use transform="matrix(0.017777777777777778,0,0,0.017777777777777778,27.733333333333334,0)" xlink:href="#ap"/><use transform="matrix(0.017777777777777778,0,0,0.017777777777777778,36.76444444444444,0)" xlink:href="#ah"/></g><path fill="#fff" d="M405-155H190L137 0H0l252-705h101L605 0H461zM225-265h150c-28-85-59-167-73-266h-5c-14 99-44 182-72 266" id="aD"/><g id="l"><use transform="matrix(0.017777777777777778,0,0,0.017777777777777778,0,0)" xlink:href="#aD"/><use transform="matrix(0.017777777777777778,0,0,0.017777777777777778,10.755555555555556,0)" xlink:href="#aA"/><use transform="matrix(0.017777777777777778,0,0,0.017777777777777778,20.32,0)" xlink:href="#ak"/><use transform="matrix(0.017777777777777778,0,0,0.017777777777777778,26.524444444444445,0)" xlink:href="#az"/></g><path fill="#fff" d="M547-478c0 191-151 258-350 237V0H60v-693c55-11 127-17 193-17 172 0 294 58 294 232zm-144-2c0-106-104-123-206-107v227c108 15 206-7 206-120" id="aE"/><path fill="#fff" d="M251 11C190 11 116 7 60 1v-701c61-8 136-9 204-10 233 0 345 125 345 354 0 233-120 367-358 367zm214-367c0-166-88-259-268-228v469c184 30 268-70 268-241" id="aF"/><g id="m"><use transform="matrix(0.017777777777777778,0,0,0.017777777777777778,0,0)" xlink:href="#aE"/><use transform="matrix(0.017777777777777778,0,0,0.017777777777777778,10.168888888888889,0)" xlink:href="#aF"/><use transform="matrix(0.017777777777777778,0,0,0.017777777777777778,21.67111111111111,0)" xlink:href="#aE"/></g><path fill="#fff" d="M338-514c121 0 155 79 155 203V0H363v-284c-1-72-12-113-77-115-52-1-86 36-99 75V0H57v-500h103l15 66h4c32-43 81-80 159-80" id="aG"/><g id="n"><use transform="matrix(0.017777777777777778,0,0,0.017777777777777778,0,0)" xlink:href="#aD"/><use transform="matrix(0.017777777777777778,0,0,0.017777777777777778,10.755555555555556,0)" xlink:href="#ag"/><use transform="matrix(0.017777777777777778,0,0,0.017777777777777778,18.151111111111113,0)" xlink:href="#ag"/><use transform="matrix(0.017777777777777778,0,0,0.017777777777777778,25.546666666666667,0)" xlink:href="#an"/><use transform="matrix(0.017777777777777778,0,0,0.017777777777777778,35.093333333333334,0)" xlink:href="#aA"/><use transform="matrix(0.017777777777777778,0,0,0.017777777777777778,44.65777777777778,0)" xlink:href="#aG"/><use transform="matrix(0.017777777777777778,0,0,0.017777777777777778,54.34666666666668,0)" xlink:href="#ak"/></g><path fill="#fff" d="M503 0H60v-700h137v578h306V0" id="aH"/><path fill="#fff" d="M333-712l98 44L74 140l-98-46" id="aI"/><path fill="#fff" d="M71-145c69 41 291 81 291-43 0-81-98-91-160-122-80-40-153-85-159-204-10-219 276-235 440-159l-43 115c-57-35-254-76-260 33 12 78 99 90 160 122 79 41 159 84 159 200C499-50 397 11 243 14 161 16 75-5 27-28" id="aJ"/><g id="o"><use transform="matrix(0.017777777777777778,0,0,0.017777777777777778,0,0)" xlink:href="#aE"/><use transform="matrix(0.017777777777777778,0,0,0.017777777777777778,10.168888888888889,0)" xlink:href="#aH"/><use transform="matrix(0.017777777777777778,0,0,0.017777777777777778,19.30666666666667,0)" xlink:href="#aE"/><use transform="matrix(0.017777777777777778,0,0,0.017777777777777778,29.47555555555555,0)" xlink:href="#aI"/><use transform="matrix(0.017777777777777778,0,0,0.017777777777777778,36.72888888888888,0)" xlink:href="#aJ"/><use transform="matrix(0.017777777777777778,0,0,0.017777777777777778,46.151111111111106,0)" xlink:href="#ap"/><use transform="matrix(0.017777777777777778,0,0,0.017777777777777778,55.182222222222215,0)" xlink:href="#ay"/><use transform="matrix(0.017777777777777778,0,0,0.017777777777777778,63.99999999999999,0)" xlink:href="#ah"/><use transform="matrix(0.017777777777777778,0,0,0.017777777777777778,70.24,0)" xlink:href="#ag"/><use transform="matrix(0.017777777777777778,0,0,0.017777777777777778,77.93777777777777,0)" xlink:href="#az"/></g><path fill="#fff" d="M31-110l197-237 51-43H31v-110h392v110L228-149l-50 39h245V0H31v-110" id="aK"/><g id="p"><use transform="matrix(0.022222222222222223,0,0,0.022222222222222223,0,0)" xlink:href="#ai"/><use transform="matrix(0.022222222222222223,0,0,0.022222222222222223,5.977777777777778,0)" xlink:href="#aG"/><use transform="matrix(0.022222222222222223,0,0,0.022222222222222223,18.08888888888889,0)" xlink:href="#ai"/><use transform="matrix(0.022222222222222223,0,0,0.022222222222222223,24.066666666666666,0)" xlink:href="#ak"/><use transform="matrix(0.022222222222222223,0,0,0.022222222222222223,31.822222222222223,0)" xlink:href="#ai"/><use transform="matrix(0.022222222222222223,0,0,0.022222222222222223,37.8,0)" xlink:href="#ay"/><use transform="matrix(0.022222222222222223,0,0,0.022222222222222223,48.82222222222222,0)" xlink:href="#as"/><use transform="matrix(0.022222222222222223,0,0,0.022222222222222223,55.355555555555554,0)" xlink:href="#ai"/><use transform="matrix(0.022222222222222223,0,0,0.022222222222222223,61.33333333333333,0)" xlink:href="#aK"/><use transform="matrix(0.022222222222222223,0,0,0.022222222222222223,71.33333333333333,0)" xlink:href="#ap"/><use transform="matrix(0.022222222222222223,0,0,0.022222222222222223,82.62222222222222,0)" xlink:href="#ah"/><use transform="matrix(0.022222222222222223,0,0,0.022222222222222223,90.42222222222222,0)" xlink:href="#af"/></g><path fill="#fff" d="M254 12C182 13 102-2 57-22v-678h130v240h4c26-30 72-53 127-52 135 3 185 99 185 249 0 170-87 274-249 275zm7-110c84 0 108-64 108-161 0-95-30-143-89-143-53 1-78 30-93 72v218c20 10 44 14 74 14" id="aL"/><g id="q"><use transform="matrix(0.022222222222222223,0,0,0.022222222222222223,0,0)" xlink:href="#aD"/><use transform="matrix(0.022222222222222223,0,0,0.022222222222222223,13.444444444444445,0)" xlink:href="#aC"/><use transform="matrix(0.022222222222222223,0,0,0.022222222222222223,25.422222222222224,0)" xlink:href="#an"/><use transform="matrix(0.022222222222222223,0,0,0.022222222222222223,37.355555555555554,0)" xlink:href="#aL"/><use transform="matrix(0.022222222222222223,0,0,0.022222222222222223,49.266666666666666,0)" xlink:href="#ap"/></g><g id="r"><use transform="matrix(0.022222222222222223,0,0,0.022222222222222223,0,0)" xlink:href="#aq"/><use transform="matrix(0.022222222222222223,0,0,0.022222222222222223,11.622222222222222,0)" xlink:href="#an"/><use transform="matrix(0.022222222222222223,0,0,0.022222222222222223,23.555555555555557,0)" xlink:href="#ao"/><use transform="matrix(0.022222222222222223,0,0,0.022222222222222223,41.44444444444444,0)" xlink:href="#ao"/><use transform="matrix(0.022222222222222223,0,0,0.022222222222222223,59.33333333333333,0)" xlink:href="#ap"/><use transform="matrix(0.022222222222222223,0,0,0.022222222222222223,70.62222222222222,0)" xlink:href="#ah"/><use transform="matrix(0.022222222222222223,0,0,0.022222222222222223,78.42222222222222,0)" xlink:href="#ag"/><use transform="matrix(0.022222222222222223,0,0,0.022222222222222223,87.66666666666666,0)" xlink:href="#ap"/></g><path d="M405-155H190L137 0H0l252-705h101L605 0H461zM225-265h150c-28-85-59-167-73-266h-5c-14 99-44 182-72 266" id="aM"/><path d="M261-512c41 0 62 4 91 15v-203h130v524c0 66 0 116 10 177h-93l-18-65h-4c-25 45-77 80-146 78C90 11 33-84 33-242c0-161 72-270 228-270zm-94 274c0 76 22 141 94 142 54 0 79-28 91-72v-212c-20-15-39-23-75-22-89 3-110 60-110 164" id="aN"/><path d="M254 12C182 13 102-2 57-22v-678h130v240h4c26-30 72-53 127-52 135 3 185 99 185 249 0 170-87 274-249 275zm7-110c84 0 108-64 108-161 0-95-30-143-89-143-53 1-78 30-93 72v218c20 10 44 14 74 14" id="aO"/><g id="s"><use transform="matrix(0.022222222222222223,0,0,0.022222222222222223,0,0)" xlink:href="#aM"/><use transform="matrix(0.022222222222222223,0,0,0.022222222222222223,13.444444444444445,0)" xlink:href="#aN"/><use transform="matrix(0.022222222222222223,0,0,0.022222222222222223,25.422222222222224,0)" xlink:href="#U"/><use transform="matrix(0.022222222222222223,0,0,0.022222222222222223,37.355555555555554,0)" xlink:href="#aO"/><use transform="matrix(0.022222222222222223,0,0,0.022222222222222223,49.266666666666666,0)" xlink:href="#W"/></g><g id="t"><use transform="matrix(0.022222222222222223,0,0,0.022222222222222223,0,0)" xlink:href="#T"/><use transform="matrix(0.022222222222222223,0,0,0.022222222222222223,11.622222222222222,0)" xlink:href="#U"/><use transform="matrix(0.022222222222222223,0,0,0.022222222222222223,23.555555555555557,0)" xlink:href="#V"/><use transform="matrix(0.022222222222222223,0,0,0.022222222222222223,41.44444444444444,0)" xlink:href="#V"/><use transform="matrix(0.022222222222222223,0,0,0.022222222222222223,59.33333333333333,0)" xlink:href="#W"/><use transform="matrix(0.022222222222222223,0,0,0.022222222222222223,70.62222222222222,0)" xlink:href="#X"/><use transform="matrix(0.022222222222222223,0,0,0.022222222222222223,78.42222222222222,0)" xlink:href="#Y"/><use transform="matrix(0.022222222222222223,0,0,0.022222222222222223,87.66666666666666,0)" xlink:href="#W"/></g><path d="M335 14C121 14 41-135 38-350c-3-216 93-364 297-364 213 0 294 149 297 364 2 215-94 364-297 364zm0-606c-118 0-155 101-153 242 2 128 30 242 153 242 120 0 155-98 153-242-2-127-29-242-153-242" id="aP"/><path d="M31-110l197-237 51-43H31v-110h392v110L228-149l-50 39h245V0H31v-110" id="aQ"/><g id="u"><use transform="matrix(0.022222222222222223,0,0,0.022222222222222223,0,0)" xlink:href="#aP"/><use transform="matrix(0.022222222222222223,0,0,0.022222222222222223,14.88888888888889,0)" xlink:href="#ac"/><use transform="matrix(0.022222222222222223,0,0,0.022222222222222223,26.88888888888889,0)" xlink:href="#ae"/><use transform="matrix(0.022222222222222223,0,0,0.022222222222222223,34.644444444444446,0)" xlink:href="#aa"/><use transform="matrix(0.022222222222222223,0,0,0.022222222222222223,40.62222222222222,0)" xlink:href="#V"/><use transform="matrix(0.022222222222222223,0,0,0.022222222222222223,58.511111111111106,0)" xlink:href="#aa"/><use transform="matrix(0.022222222222222223,0,0,0.022222222222222223,64.48888888888888,0)" xlink:href="#aQ"/><use transform="matrix(0.022222222222222223,0,0,0.022222222222222223,74.48888888888888,0)" xlink:href="#W"/><use transform="matrix(0.022222222222222223,0,0,0.022222222222222223,85.77777777777777,0)" xlink:href="#X"/></g><path fill="#fff" d="M283-512c75-1 146 12 197 30V0c1 145-82 211-224 212-78 1-132-10-176-31l27-103c36 13 74 27 129 27 98 0 121-48 117-144h-4C326-8 284 8 225 8 81 8 33-84 33-240c-1-172 82-272 250-272zM167-245c0 83 22 149 93 149 55 0 75-25 90-68v-225c-21-9-46-13-77-13-80 0-107 63-106 157" id="aR"/><g id="v"><use transform="matrix(0.017777777777777778,0,0,0.017777777777777778,0,0)" xlink:href="#aq"/><use transform="matrix(0.017777777777777778,0,0,0.017777777777777778,9.742222222222221,0)" xlink:href="#ay"/><use transform="matrix(0.017777777777777778,0,0,0.017777777777777778,18.56,0)" xlink:href="#ak"/><use transform="matrix(0.017777777777777778,0,0,0.017777777777777778,24.764444444444443,0)" xlink:href="#ay"/><use transform="matrix(0.017777777777777778,0,0,0.017777777777777778,33.58222222222222,0)" xlink:href="#as"/><use transform="matrix(0.017777777777777778,0,0,0.017777777777777778,38.80888888888889,0)" xlink:href="#an"/><use transform="matrix(0.017777777777777778,0,0,0.017777777777777778,48.355555555555554,0)" xlink:href="#aR"/></g><path fill="#fff" d="M137-500c36 113 85 214 110 339h5c19-127 66-226 99-339h140L282 5h-79L-14-500h151" id="aS"/><g id="w"><use transform="matrix(0.017777777777777778,0,0,0.017777777777777778,0,0)" xlink:href="#aJ"/><use transform="matrix(0.017777777777777778,0,0,0.017777777777777778,9.422222222222222,0)" xlink:href="#ap"/><use transform="matrix(0.017777777777777778,0,0,0.017777777777777778,18.453333333333333,0)" xlink:href="#ah"/><use transform="matrix(0.017777777777777778,0,0,0.017777777777777778,24.69333333333333,0)" xlink:href="#aS"/><use transform="matrix(0.017777777777777778,0,0,0.017777777777777778,33.17333333333333,0)" xlink:href="#ai"/><use transform="matrix(0.017777777777777778,0,0,0.017777777777777778,37.955555555555556,0)" xlink:href="#ag"/><use transform="matrix(0.017777777777777778,0,0,0.017777777777777778,45.351111111111116,0)" xlink:href="#ap"/></g><g id="x"><use transform="matrix(0.017777777777777778,0,0,0.017777777777777778,0,0)" xlink:href="#aH"/><use transform="matrix(0.017777777777777778,0,0,0.017777777777777778,9.137777777777778,0)" xlink:href="#ai"/><use transform="matrix(0.017777777777777778,0,0,0.017777777777777778,13.92,0)" xlink:href="#aS"/><use transform="matrix(0.017777777777777778,0,0,0.017777777777777778,22.275555555555556,0)" xlink:href="#ap"/></g><g id="y"><use transform="matrix(0.017777777777777778,0,0,0.017777777777777778,0,0)" xlink:href="#aJ"/><use transform="matrix(0.017777777777777778,0,0,0.017777777777777778,9.422222222222222,0)" xlink:href="#ap"/><use transform="matrix(0.017777777777777778,0,0,0.017777777777777778,18.453333333333333,0)" xlink:href="#ay"/><use transform="matrix(0.017777777777777778,0,0,0.017777777777777778,27.27111111111111,0)" xlink:href="#ah"/><use transform="matrix(0.017777777777777778,0,0,0.017777777777777778,33.51111111111111,0)" xlink:href="#ag"/><use transform="matrix(0.017777777777777778,0,0,0.017777777777777778,41.2088888888889,0)" xlink:href="#az"/></g><path fill="#fff" d="M524-513c0 116-60 187-147 215l49 31L586 0H428L269-274l-72-13V0H60v-693c195-32 464-42 464 180zm-144 21c0-92-93-108-183-91v203c104 6 183-11 183-112" id="aT"/><path fill="#fff" d="M60-700h415v122H197v163h253v122H197v171h283V0H60v-700" id="aU"/><path fill="#fff" d="M225-356L30-700h165c44 91 102 168 132 273l23-71 113-202h149L410-363 622 0H459L336-216l-27-74-26 74L159 0H10" id="aV"/><g id="z"><use transform="matrix(0.017777777777777778,0,0,0.017777777777777778,0,0)" xlink:href="#aE"/><use transform="matrix(0.017777777777777778,0,0,0.017777777777777778,10.168888888888889,0)" xlink:href="#aT"/><use transform="matrix(0.017777777777777778,0,0,0.017777777777777778,20.871111111111112,0)" xlink:href="#aU"/><use transform="matrix(0.017777777777777778,0,0,0.017777777777777778,30.151111111111113,0)" xlink:href="#aV"/></g><g id="A"><use transform="matrix(0.022222222222222223,0,0,0.022222222222222223,0,0)" xlink:href="#aU"/><use transform="matrix(0.022222222222222223,0,0,0.022222222222222223,11.6,0)" xlink:href="#aC"/><use transform="matrix(0.022222222222222223,0,0,0.022222222222222223,23.577777777777772,0)" xlink:href="#aR"/><use transform="matrix(0.022222222222222223,0,0,0.022222222222222223,35.48888888888889,0)" xlink:href="#ap"/></g><path fill="#fff" d="M147-500c36 120 82 230 110 359h6c19-130 60-239 89-359h134C423-317 367-125 298 54c-28 72-55 151-146 151-35 0-62-6-83-17L93 84c63 20 96-24 107-84L-9-500h156" id="aW"/><g id="B"><use transform="matrix(0.022222222222222223,0,0,0.022222222222222223,0,0)" xlink:href="#aF"/><use transform="matrix(0.022222222222222223,0,0,0.022222222222222223,14.377777777777778,0)" xlink:href="#ap"/><use transform="matrix(0.022222222222222223,0,0,0.022222222222222223,25.666666666666668,0)" xlink:href="#as"/><use transform="matrix(0.022222222222222223,0,0,0.022222222222222223,32.2,0)" xlink:href="#ai"/><use transform="matrix(0.022222222222222223,0,0,0.022222222222222223,38.17777777777778,0)" xlink:href="#aS"/><use transform="matrix(0.022222222222222223,0,0,0.022222222222222223,48.62222222222223,0)" xlink:href="#ap"/><use transform="matrix(0.022222222222222223,0,0,0.022222222222222223,59.91111111111111,0)" xlink:href="#ah"/><use transform="matrix(0.022222222222222223,0,0,0.022222222222222223,67.71111111111111,0)" xlink:href="#aW"/></g><g id="C"><use transform="matrix(0.022222222222222223,0,0,0.022222222222222223,0,0)" xlink:href="#aJ"/><use transform="matrix(0.022222222222222223,0,0,0.022222222222222223,11.777777777777779,0)" xlink:href="#ap"/><use transform="matrix(0.022222222222222223,0,0,0.022222222222222223,23.066666666666666,0)" xlink:href="#ah"/><use transform="matrix(0.022222222222222223,0,0,0.022222222222222223,30.866666666666674,0)" xlink:href="#aS"/><use transform="matrix(0.022222222222222223,0,0,0.022222222222222223,41.46666666666667,0)" xlink:href="#ai"/><use transform="matrix(0.022222222222222223,0,0,0.022222222222222223,47.44444444444444,0)" xlink:href="#ag"/><use transform="matrix(0.022222222222222223,0,0,0.022222222222222223,56.68888888888888,0)" xlink:href="#ap"/><use transform="matrix(0.022222222222222223,0,0,0.022222222222222223,67.97777777777777,0)" xlink:href="#af"/></g><g id="D"><use transform="matrix(0.022222222222222223,0,0,0.022222222222222223,0,0)" xlink:href="#aq"/><use transform="matrix(0.022222222222222223,0,0,0.022222222222222223,11.622222222222222,0)" xlink:href="#an"/><use transform="matrix(0.022222222222222223,0,0,0.022222222222222223,23.555555555555557,0)" xlink:href="#aG"/><use transform="matrix(0.022222222222222223,0,0,0.022222222222222223,35.66666666666667,0)" xlink:href="#ak"/><use transform="matrix(0.022222222222222223,0,0,0.022222222222222223,43.31111111111111,0)" xlink:href="#ap"/><use transform="matrix(0.022222222222222223,0,0,0.022222222222222223,54.6,0)" xlink:href="#aG"/><use transform="matrix(0.022222222222222223,0,0,0.022222222222222223,66.71111111111111,0)" xlink:href="#ak"/></g><g id="E"><use transform="matrix(0.022222222222222223,0,0,0.022222222222222223,0,0)" xlink:href="#aJ"/><use transform="matrix(0.022222222222222223,0,0,0.022222222222222223,11.777777777777779,0)" xlink:href="#an"/><use transform="matrix(0.022222222222222223,0,0,0.022222222222222223,23.711111111111112,0)" xlink:href="#aA"/><use transform="matrix(0.022222222222222223,0,0,0.022222222222222223,35.66666666666667,0)" xlink:href="#ah"/><use transform="matrix(0.022222222222222223,0,0,0.022222222222222223,43.46666666666667,0)" xlink:href="#ag"/><use transform="matrix(0.022222222222222223,0,0,0.022222222222222223,52.711111111111116,0)" xlink:href="#ap"/></g><use transform="matrix(0.022222222222222223,0,0,0.022222222222222223,0,0)" xlink:href="#aI" id="F"/><g id="G"><use transform="matrix(0.022222222222222223,0,0,0.022222222222222223,0,0)" xlink:href="#aD"/><use transform="matrix(0.022222222222222223,0,0,0.022222222222222223,13.444444444444445,0)" xlink:href="#aA"/><use transform="matrix(0.022222222222222223,0,0,0.022222222222222223,25.400000000000002,0)" xlink:href="#ak"/><use transform="matrix(0.022222222222222223,0,0,0.022222222222222223,33.15555555555555,0)" xlink:href="#az"/><use transform="matrix(0.022222222222222223,0,0,0.022222222222222223,45.266666666666666,0)" xlink:href="#an"/><use transform="matrix(0.022222222222222223,0,0,0.022222222222222223,57.2,0)" xlink:href="#ah"/><use transform="matrix(0.022222222222222223,0,0,0.022222222222222223,65,0)" xlink:href="#ai"/><use transform="matrix(0.022222222222222223,0,0,0.022222222222222223,70.97777777777777,0)" xlink:href="#aG"/><use transform="matrix(0.022222222222222223,0,0,0.022222222222222223,83.08888888888889,0)" xlink:href="#aR"/></g><path fill="#fff" d="M190-243c0 170 48 308 126 407l-89 56C82 82 14-227 98-482c29-88 73-167 132-230l84 54c-77 104-124 239-124 415" id="aX"/><path fill="#fff" d="M106 5C69 8 42-21 42-64c0-44 35-74 78-74 118 0 103 179 42 234-25 22-55 41-87 52L37 94c32-12 66-49 69-89" id="aY"/><g id="H"><use transform="matrix(0.017777777777777778,0,0,0.017777777777777778,0,0)" xlink:href="#aX"/><use transform="matrix(0.017777777777777778,0,0,0.017777777777777778,5.8133333333333335,0)" xlink:href="#aF"/><use transform="matrix(0.017777777777777778,0,0,0.017777777777777778,16.817777777777778,0)" xlink:href="#aD"/><use transform="matrix(0.017777777777777778,0,0,0.017777777777777778,27.573333333333334,0)" xlink:href="#aY"/></g><path fill="#fff" d="M603 0c3-170-9-354 15-502h-6l-43 112-149 261h-44L219-391l-44-111h-5l20 138V0H60v-700h125l187 320 33 80h4l30-82 177-318h124V0H603" id="aZ"/><g id="I"><use transform="matrix(0.017777777777777778,0,0,0.017777777777777778,0,0)" xlink:href="#aD"/><use transform="matrix(0.017777777777777778,0,0,0.017777777777777778,10.755555555555556,0)" xlink:href="#aU"/><use transform="matrix(0.017777777777777778,0,0,0.017777777777777778,20.035555555555554,0)" xlink:href="#aZ"/></g><g id="J"><use transform="matrix(0.017777777777777778,0,0,0.017777777777777778,0,0)" xlink:href="#aE"/><use transform="matrix(0.017777777777777778,0,0,0.017777777777777778,9.653333333333334,0)" xlink:href="#aA"/><use transform="matrix(0.017777777777777778,0,0,0.017777777777777778,19.217777777777776,0)" xlink:href="#aL"/><use transform="matrix(0.017777777777777778,0,0,0.017777777777777778,28.746666666666663,0)" xlink:href="#as"/><use transform="matrix(0.017777777777777778,0,0,0.017777777777777778,33.97333333333333,0)" xlink:href="#ai"/><use transform="matrix(0.017777777777777778,0,0,0.017777777777777778,38.75555555555555,0)" xlink:href="#af"/><use transform="matrix(0.017777777777777778,0,0,0.017777777777777778,46.257777777777775,0)" xlink:href="#az"/><use transform="matrix(0.017777777777777778,0,0,0.017777777777777778,55.946666666666665,0)" xlink:href="#aY"/></g><path fill="#fff" d="M344-585c-48-18-132-27-132 43 0 12-2 26-2 42h110v110H210V0H80v-390H11v-110h69c-6-133 36-207 156-208 53 0 98 6 133 19" id="ba"/><g id="K"><use transform="matrix(0.017777777777777778,0,0,0.017777777777777778,0,0)" xlink:href="#aZ"/><use transform="matrix(0.017777777777777778,0,0,0.017777777777777778,14.222222222222221,0)" xlink:href="#ai"/><use transform="matrix(0.017777777777777778,0,0,0.017777777777777778,19.004444444444445,0)" xlink:href="#ag"/><use transform="matrix(0.017777777777777778,0,0,0.017777777777777778,26.702222222222222,0)" xlink:href="#ah"/><use transform="matrix(0.017777777777777778,0,0,0.017777777777777778,32.94222222222222,0)" xlink:href="#an"/><use transform="matrix(0.017777777777777778,0,0,0.017777777777777778,42.48888888888889,0)" xlink:href="#af"/><use transform="matrix(0.017777777777777778,0,0,0.017777777777777778,49.99111111111111,0)" xlink:href="#an"/><use transform="matrix(0.017777777777777778,0,0,0.017777777777777778,59.324444444444445,0)" xlink:href="#ba"/><use transform="matrix(0.017777777777777778,0,0,0.017777777777777778,64.88888888888889,0)" xlink:href="#ak"/></g><path fill="#fff" d="M113-125c35 17 76 29 128 29 75 0 125-45 127-113 3-110-98-116-213-111v-69l121-165 57-45c-73 13-162 8-247 9v-110h382v71L327-440l-44 27v5l42-6c109 12 172 78 173 197C500-31 345 38 154 6 123 1 97-7 78-17" id="bb"/><path fill="#fff" d="M315-432c133 4 205 80 205 215 0 142-87 231-229 231C131 14 52-87 52-251c0-260 136-416 355-463l29 103c-134 27-219 113-253 239 28-33 69-61 132-60zM288-96c63 2 106-50 106-114 0-75-37-112-110-112-60 0-112 30-108 95 4 74 36 129 112 131" id="bc"/><path fill="#fff" d="M103-122c34 14 67 21 117 21 83 1 135-42 136-120 2-116-120-123-237-113v-366h344v122H231v135l41-4c134 9 214 82 214 222C486-36 331 37 136 6 109 1 87-5 68-14" id="bd"/><g id="L"><use transform="matrix(0.017777777777777778,0,0,0.017777777777777778,0,0)" xlink:href="#bb"/><use transform="matrix(0.017777777777777778,0,0,0.017777777777777778,10.08,0)" xlink:href="#bc"/><use transform="matrix(0.017777777777777778,0,0,0.017777777777777778,20.16,0)" xlink:href="#bd"/><use transform="matrix(0.017777777777777778,0,0,0.017777777777777778,30.24,0)" xlink:href="#aY"/></g><path fill="#fff" d="M365-108c36 0 72-9 93-26v-132l-151-16v-83h261v312c-48 43-131 67-216 67C135 14 40-127 38-350c-3-260 164-399 432-355 30 6 54 12 72 19l-28 115c-39-15-76-21-135-21-142 2-197 96-197 243 0 140 51 241 183 241" id="be"/><g id="M"><use transform="matrix(0.017777777777777778,0,0,0.017777777777777778,0,0)" xlink:href="#be"/><use transform="matrix(0.017777777777777778,0,0,0.017777777777777778,10.826666666666666,0)" xlink:href="#an"/><use transform="matrix(0.017777777777777778,0,0,0.017777777777777778,20.373333333333335,0)" xlink:href="#an"/><use transform="matrix(0.017777777777777778,0,0,0.017777777777777778,29.92,0)" xlink:href="#aR"/><use transform="matrix(0.017777777777777778,0,0,0.017777777777777778,39.44888888888889,0)" xlink:href="#as"/><use transform="matrix(0.017777777777777778,0,0,0.017777777777777778,44.675555555555555,0)" xlink:href="#ap"/></g><path fill="#fff" d="M136-249c-2-169-49-305-125-406l88-57C244-574 312-265 228-10c-29 88-73 167-132 230l-84-55C90 60 138-71 136-249" id="bf"/><g id="N"><use transform="matrix(0.017777777777777778,0,0,0.017777777777777778,0,0)" xlink:href="#aF"/><use transform="matrix(0.017777777777777778,0,0,0.017777777777777778,11.502222222222223,0)" xlink:href="#ah"/><use transform="matrix(0.017777777777777778,0,0,0.017777777777777778,17.742222222222225,0)" xlink:href="#ai"/><use transform="matrix(0.017777777777777778,0,0,0.017777777777777778,22.52444444444445,0)" xlink:href="#aS"/><use transform="matrix(0.017777777777777778,0,0,0.017777777777777778,30.880000000000003,0)" xlink:href="#ap"/><use transform="matrix(0.017777777777777778,0,0,0.017777777777777778,39.68,0)" xlink:href="#bf"/></g><g id="O"><use transform="matrix(0.022222222222222223,0,0,0.022222222222222223,0,0)" xlink:href="#aE"/><use transform="matrix(0.022222222222222223,0,0,0.022222222222222223,12.066666666666666,0)" xlink:href="#ay"/><use transform="matrix(0.022222222222222223,0,0,0.022222222222222223,23.08888888888889,0)" xlink:href="#aR"/><use transform="matrix(0.022222222222222223,0,0,0.022222222222222223,35,0)" xlink:href="#ap"/><use transform="matrix(0.022222222222222223,0,0,0.022222222222222223,46.28888888888889,0)" xlink:href="#af"/></g><path fill="#fff" d="M54-345h251v115H54v-115" id="bg"/><g id="P"><use transform="matrix(0.017777777777777778,0,0,0.017777777777777778,0,0)" xlink:href="#aX"/><use transform="matrix(0.017777777777777778,0,0,0.017777777777777778,5.8133333333333335,0)" xlink:href="#af"/><use transform="matrix(0.017777777777777778,0,0,0.017777777777777778,13.315555555555555,0)" xlink:href="#ap"/><use transform="matrix(0.017777777777777778,0,0,0.017777777777777778,22.346666666666664,0)" xlink:href="#ah"/><use transform="matrix(0.017777777777777778,0,0,0.017777777777777778,28.586666666666666,0)" xlink:href="#aS"/><use transform="matrix(0.017777777777777778,0,0,0.017777777777777778,36.94222222222222,0)" xlink:href="#ap"/><use transform="matrix(0.017777777777777778,0,0,0.017777777777777778,45.97333333333332,0)" xlink:href="#ah"/><use transform="matrix(0.017777777777777778,0,0,0.017777777777777778,52.21333333333333,0)" xlink:href="#bg"/><use transform="matrix(0.017777777777777778,0,0,0.017777777777777778,58.61333333333333,0)" xlink:href="#af"/><use transform="matrix(0.017777777777777778,0,0,0.017777777777777778,66.11555555555555,0)" xlink:href="#ai"/><use transform="matrix(0.017777777777777778,0,0,0.017777777777777778,70.89777777777776,0)" xlink:href="#aC"/><use transform="matrix(0.017777777777777778,0,0,0.017777777777777778,80.47999999999999,0)" xlink:href="#ap"/></g><g id="Q"><use transform="matrix(0.017777777777777778,0,0,0.017777777777777778,0,0)" xlink:href="#aR"/><use transform="matrix(0.017777777777777778,0,0,0.017777777777777778,9.528888888888888,0)" xlink:href="#ap"/><use transform="matrix(0.017777777777777778,0,0,0.017777777777777778,18.56,0)" xlink:href="#aG"/><use transform="matrix(0.017777777777777778,0,0,0.017777777777777778,28.248888888888885,0)" xlink:href="#ap"/><use transform="matrix(0.017777777777777778,0,0,0.017777777777777778,37.279999999999994,0)" xlink:href="#ah"/><use transform="matrix(0.017777777777777778,0,0,0.017777777777777778,43.52,0)" xlink:href="#ay"/><use transform="matrix(0.017777777777777778,0,0,0.017777777777777778,52.33777777777778,0)" xlink:href="#ak"/><use transform="matrix(0.017777777777777778,0,0,0.017777777777777778,58.45333333333333,0)" xlink:href="#ap"/><use transform="matrix(0.017777777777777778,0,0,0.017777777777777778,67.48444444444445,0)" xlink:href="#aC"/><use transform="matrix(0.017777777777777778,0,0,0.017777777777777778,77.06666666666668,0)" xlink:href="#bf"/></g><path fill="#fff" d="M557-578H353V0H216v-578H11v-122h546v122" id="bh"/><g id="R"><use transform="matrix(0.017777777777777778,0,0,0.017777777777777778,0,0)" xlink:href="#bh"/><use transform="matrix(0.017777777777777778,0,0,0.017777777777777778,7.822222222222221,0)" xlink:href="#an"/><use transform="matrix(0.017777777777777778,0,0,0.017777777777777778,17.36888888888889,0)" xlink:href="#an"/><use transform="matrix(0.017777777777777778,0,0,0.017777777777777778,26.915555555555557,0)" xlink:href="#as"/><use transform="matrix(0.017777777777777778,0,0,0.017777777777777778,32.14222222222222,0)" xlink:href="#af"/></g><g id="S"><use transform="matrix(0.022222222222222223,0,0,0.022222222222222223,0,0)" xlink:href="#ar"/><use transform="matrix(0.022222222222222223,0,0,0.022222222222222223,13.133333333333335,0)" xlink:href="#as"/><use transform="matrix(0.022222222222222223,0,0,0.022222222222222223,19.666666666666668,0)" xlink:href="#an"/><use transform="matrix(0.022222222222222223,0,0,0.022222222222222223,31.6,0)" xlink:href="#ag"/><use transform="matrix(0.022222222222222223,0,0,0.022222222222222223,41.22222222222222,0)" xlink:href="#at"/><use transform="matrix(0.022222222222222223,0,0,0.022222222222222223,52.13333333333333,0)" xlink:href="#af"/></g></defs></g></svg>